<svg width="534" height="422" viewBox="0 0 534 422" fill="none" xmlns="http://www.w3.org/2000/svg">
<path d="M278.306 82.8742C239.929 79.0926 220.075 100.3 194.842 118.248C168.859 136.71 175.856 144.206 111.927 157.496C65.0521 167.199 51.4113 214.439 50.2225 232.556L469.724 240.801C374.71 162.709 381.261 93.0147 278.306 82.8742Z" fill="url(#paint0_linear_32_8782)"/>
<path d="M196.553 177.929H153.49V233.39H196.553V177.929Z" fill="url(#paint1_linear_32_8782)"/>
<path d="M169.162 177.929H153.49V233.078H169.162V177.929Z" fill="url(#paint2_linear_32_8782)"/>
<path d="M153.498 210.346H105.266V234.021H153.498V210.346Z" fill="url(#paint3_linear_32_8782)"/>
<path d="M52.0182 245.619C52.0182 245.619 158.624 319.5 261.84 317.756C288.077 319.146 368.556 304.146 485.152 255.229C372.383 220.284 120.871 235.259 120.071 234.24L52.0182 245.619Z" fill="url(#paint4_linear_32_8782)"/>
<path opacity="0.99" d="M65.2713 251.784L115.678 240.768L110.249 234.931C111.092 234.931 167.99 233.878 184.135 233.339C185.703 233.28 185.568 233.07 184.051 233.516C180.164 232.606 79.8394 256.795 79.6287 257.747C74.8401 258.404 66.9827 257.124 66.9827 257.124L43.4359 254.454L65.2713 251.784Z" fill="url(#paint5_linear_32_8782)"/>
<path d="M63.2732 232.977C62.995 233.92 66.7129 233.626 68.8121 232.202C71.805 230.265 77.0405 230.846 79.4685 233.609C80.1972 234.635 81.0463 235.571 81.9977 236.396C82.2257 236.582 82.493 236.713 82.7792 236.78C83.0654 236.847 83.3631 236.848 83.6498 236.783C83.9365 236.718 84.2046 236.589 84.434 236.405C84.6633 236.221 84.8479 235.988 84.9737 235.723C85.2013 238.249 86.1962 238.94 88.1352 239.428C90.0743 239.917 95.8493 239.749 96.7766 239.799C95.5122 239.166 94.3001 238.434 93.1514 237.609C70.4393 222.003 62.9022 234.063 63.2732 232.977Z" fill="url(#paint6_linear_32_8782)"/>
<path d="M71.2908 208.611C71.2908 208.611 118.502 213.942 118.705 213.799C118.907 213.656 93.6826 207.44 93.6826 207.44L50.9813 208.434L71.2908 208.611Z" fill="url(#paint7_linear_32_8782)"/>
<path d="M66.4937 244.457C70.3718 245.072 75.9192 241.989 76.2985 238.148C76.2814 237.588 76.4123 237.033 76.6779 236.54C77.0092 236.139 77.4524 235.846 77.9509 235.697C77.3102 235.95 83.2117 233.457 96.9958 231.798C104.128 230.956 111.53 229.734 118.368 231.916C119.75 232.354 122.912 237.037 123.991 237.988C126.073 239.85 123.788 243.657 119.118 242.688C118.587 245.4 120.458 246.385 117.997 245.897C118.975 245.484 116.867 247.674 117.904 247.91C114.144 248.398 86.6598 254.968 80.7078 255.237C76.7538 255.397 57.6921 254.033 57.1441 253.991C56.4612 254.235 52.1616 253.469 52.5831 249.291" fill="url(#paint8_linear_32_8782)"/>
<path d="M74.8232 211.854C74.8232 211.854 73.7356 248.44 73.6344 250.158C73.5333 251.877 71.4677 251.405 71.4677 251.405C71.6448 252.34 47.8619 250.276 46.1168 250.083C45.3158 249.99 44.3548 249.965 43.5876 249.796C43.1653 249.696 42.7813 249.476 42.482 249.162C42.1827 248.848 41.981 248.454 41.9014 248.028L41.4125 244.238C40.0551 232.438 42.7445 220.209 43.3262 216.553C43.9079 212.898 47.0188 209.681 47.0188 209.681C48.0727 208.097 74.2499 206.034 81.4496 209.394C82.4445 209.866 75.211 211.98 74.8232 211.854Z" fill="url(#paint9_linear_32_8782)"/>
<path d="M117.457 236.961C115.577 236.961 113.984 238.906 113.984 242.014C113.984 245.122 115.51 247.665 117.406 247.665C119.303 247.665 120.829 245.139 120.829 242.014C120.829 238.889 119.345 236.961 117.457 236.961Z" fill="url(#paint10_linear_32_8782)"/>
<path d="M69.3769 210.531C72.3951 207.339 91.1702 208.788 91.1702 208.788L95.1579 207.44L113.545 210.809L115.467 212.494L123.662 213.294C124.074 213.25 124.49 213.347 124.84 213.568C125.191 213.79 125.456 214.124 125.593 214.515C125.593 214.515 128.24 217.21 128.122 231.874C128.122 234.316 128.122 239.327 128.122 240.102C128.215 241.147 126.933 242.225 126.933 242.225L121.967 243.774H121.58C121.58 243.842 121.681 238.856 121.58 237.348C121.478 235.841 117.819 236.152 117.642 236.674C117.145 237.769 116.648 244.549 116.648 244.49L91.8109 249.08V242.738C91.8109 242.738 91.8109 242.679 91.8109 242.654C91.8719 242.174 91.7444 241.689 91.4552 241.302C91.1659 240.914 90.7374 240.653 90.2597 240.574C89.3155 240.481 88.3654 240.464 87.4186 240.523C86.2888 240.591 86.1455 242.208 86.1455 242.208L85.0664 249.973C85.176 249.973 76.0203 251.203 74.8316 251.472C72.9887 251.792 71.11 251.852 69.2505 251.649C69.2505 251.649 69.6636 213.488 69.3769 210.531Z" fill="#F06B6C"/>
<path d="M120.143 242.301C120.218 240.749 119.678 239.463 118.939 239.427C118.199 239.392 117.54 240.621 117.465 242.173C117.391 243.725 117.93 245.012 118.67 245.047C119.409 245.082 120.069 243.853 120.143 242.301Z" fill="url(#paint11_linear_32_8782)"/>
<path d="M119.639 242.271C119.69 241.216 119.245 240.338 118.645 240.309C118.045 240.28 117.517 241.111 117.466 242.166C117.415 243.221 117.86 244.099 118.46 244.128C119.06 244.157 119.588 243.326 119.639 242.271Z" fill="url(#paint12_linear_32_8782)"/>
<path d="M118.814 242.174C118.814 243.016 118.41 243.716 117.971 243.716H117.862C117.589 243.24 117.458 242.698 117.482 242.151C117.505 241.603 117.684 241.074 117.997 240.625C118.047 240.616 118.098 240.616 118.148 240.625C118.545 240.65 118.848 241.307 118.814 242.174Z" fill="#425685"/>
<path opacity="0.57" d="M85.1086 250.083C85.1086 250.083 86.0612 243.345 86.2973 242.022C86.3464 241.734 86.4799 241.466 86.6809 241.254C86.882 241.041 87.1416 240.892 87.427 240.826C88.6011 240.6 89.8123 240.658 90.9595 240.995C92.0302 241.382 91.8953 243.058 91.8953 243.058L91.9458 249.106L92.3168 249.047C92.3168 249.047 92.2578 242.764 92.2578 240.456C92.2578 238.148 89.1131 238.274 87.427 238.376C85.7409 238.477 85.4711 240.793 85.4711 240.793L84.5775 250.142L85.1086 250.083Z" fill="url(#paint13_linear_32_8782)"/>
<path opacity="0.57" d="M116.791 244.507C116.791 244.507 117.482 239.31 117.634 238.19C117.727 237.685 118.317 237.516 118.317 237.516C119.205 237.324 120.128 237.373 120.989 237.66C121.833 237.997 121.698 239.142 121.698 239.142L121.647 243.783H122.043C122.043 243.783 122.102 238.856 122.102 236.843C122.102 234.83 119.657 235.082 118.342 235.082C117.027 235.082 116.867 237.18 116.867 237.18L116.277 244.515L116.791 244.507Z" fill="url(#paint14_linear_32_8782)"/>
<path d="M90.2115 247.529C90.3687 245.386 89.6943 243.59 88.7052 243.518C87.7161 243.445 86.7868 245.124 86.6297 247.267C86.4725 249.41 87.1469 251.207 88.136 251.279C89.1251 251.351 90.0544 249.673 90.2115 247.529Z" fill="url(#paint15_linear_32_8782)"/>
<path d="M90.5722 247.566C90.6859 245.97 90.1305 244.63 89.3316 244.573C88.5328 244.516 87.7931 245.764 87.6794 247.36C87.5657 248.956 88.1211 250.296 88.92 250.353C89.7188 250.41 90.4585 249.162 90.5722 247.566Z" fill="url(#paint16_linear_32_8782)"/>
<path opacity="0.13" d="M75.8939 209.015H64.7654V252.239H75.8939V209.015Z" fill="url(#paint17_linear_32_8782)"/>
<path d="M69.6552 211.205C71.1643 210.009 78.4483 209.723 78.4483 209.723L124.623 214.684C124.623 214.684 126.377 221.716 126.377 224.605C126.432 226.065 126.112 227.514 125.449 228.816C124.766 226.189 122.718 226.189 120.829 226.189L83.5826 225.944C81.4409 226.045 79.4155 226.947 77.9088 228.471L69.3685 236.767" fill="url(#paint18_linear_32_8782)"/>
<path d="M45.4423 241.046L62.3627 242.031L68.5761 239.412C68.4159 244.389 63.6863 243.564 61.9917 243.446C60.2972 243.328 61.3004 242.865 61.3004 242.865L46.2095 241.879C45.9011 242.157 45.5102 242.325 45.0967 242.36C43.9773 242.25 42.8691 242.047 41.7834 241.753C40.5694 241.357 41.2523 239.167 41.2523 239.167L45.4423 241.046Z" fill="url(#paint19_linear_32_8782)"/>
<path d="M44.1693 213.378C45.3664 210.119 47.002 209.714 47.002 209.714C52.2627 209.327 67.4547 209.327 69.7647 209.714C71.4509 210.397 71.1558 211.247 71.1052 211.247L69.3516 236.767C69.3516 236.767 68.8627 236.506 65.777 237.356C64.0403 237.786 63.8549 238.552 62.3458 239.622C54.6739 239.176 45.4845 238.856 45.4845 238.856C45.0798 238.013 41.0499 235.739 41.0499 235.739C41.3534 225.481 42.6939 217.471 44.1693 213.378Z" fill="url(#paint20_linear_32_8782)"/>
<path d="M43.8153 214.743H39.8191C38.5293 216.958 38.2089 221.523 38.2089 221.523C36.5228 221.464 36.1181 220.942 36.1181 220.942C35.8763 219.015 36.0051 217.059 36.4975 215.181C37.3405 212.544 41.3788 213.05 41.3788 213.05H44.4307L43.8153 214.743Z" fill="#F06B6C"/>
<path d="M40.2153 213.774C39.5657 213.98 38.9618 214.309 38.4364 214.743H39.3722C39.3722 214.743 38.0065 216.04 38.0823 221.481C36.4974 221.396 36.1349 220.908 36.1349 220.908C35.8931 218.981 36.0218 217.026 36.5142 215.147C37.3573 212.511 41.3956 213.016 41.3956 213.016H44.4306L44.2536 213.521L40.2153 213.774Z" fill="url(#paint21_linear_32_8782)"/>
<path d="M47.0189 209.672C45.355 217.034 44.7279 224.592 45.1557 232.126L47.9547 232.497L47.7186 235.184L57.3464 235.647L57.6162 232.8L67.5307 233.154L67.6403 231.992L69.7648 209.706L47.0189 209.672Z" fill="url(#paint22_linear_32_8782)"/>
<path d="M67.0585 242.022C65.6928 243.286 63.8296 242.924 62.5819 242.865C61.3341 242.806 62.2952 242.132 62.3627 241.972C62.4301 241.812 62.742 240.035 62.742 240.035L68.4243 238.3C68.8796 239.942 68.4327 240.759 67.0585 242.022Z" fill="url(#paint23_linear_32_8782)"/>
<path d="M41.3198 240.304C41.4968 241.458 43.6045 241.989 44.4728 241.77C45.3412 241.551 45.4424 241.037 45.4424 241.037C45.2316 240.195 44.5403 239.782 43.8574 239.151C43.0812 238.531 42.2613 237.968 41.4041 237.466C41.2446 238.404 41.2163 239.359 41.3198 240.304Z" fill="url(#paint24_linear_32_8782)"/>
<path d="M67.8426 236.767H62.9781C64.37 235.659 65.4481 234.208 66.1059 232.556C67.2187 229.776 68.5086 222.895 68.6351 222.634L67.8426 236.767Z" fill="url(#paint25_linear_32_8782)"/>
<path d="M128.198 240.136C128.233 240.569 128.14 241.003 127.928 241.382C127.716 241.762 127.396 242.07 127.009 242.267L122.043 243.817" fill="#F06B6C"/>
<path d="M63.3322 249.207C62.8954 249.422 62.4249 249.562 61.9411 249.619L45.788 248.71C45.09 248.582 44.4197 248.334 43.8068 247.977L63.3322 249.207Z" fill="url(#paint26_linear_32_8782)"/>
<path d="M48.3341 247.977L56.7647 248.567C56.8093 248.569 56.8539 248.562 56.8958 248.547C56.9376 248.531 56.9759 248.507 57.0082 248.477C57.0406 248.446 57.0663 248.409 57.0839 248.368C57.1014 248.327 57.1105 248.283 57.1104 248.238V247.051C57.1127 246.965 57.0814 246.882 57.0231 246.819C56.9648 246.756 56.8842 246.718 56.7985 246.714L48.3678 246.251C48.3235 246.249 48.2794 246.257 48.2381 246.273C48.1968 246.289 48.159 246.313 48.1269 246.343C48.0948 246.374 48.069 246.41 48.051 246.451C48.0331 246.491 48.0232 246.535 48.0222 246.579V247.657C48.0221 247.741 48.0547 247.821 48.113 247.88C48.1713 247.94 48.2506 247.975 48.3341 247.977Z" fill="#A1A7C2"/>
<path d="M43.8068 214.743C43.8068 214.869 45.1388 217.598 45.1388 217.598L44.8775 220.529C45.1256 221.067 45.4748 221.553 45.906 221.961C45.978 222.043 46.0668 222.109 46.1664 222.154C46.266 222.199 46.3741 222.223 46.4835 222.223C46.5929 222.223 46.701 222.199 46.8006 222.154C46.9002 222.109 46.989 222.043 47.061 221.961C47.1032 221.792 45.8891 218.971 45.8891 218.971L47.3223 218.07C47.1959 217.16 44.5318 213.185 44.4053 213.016L43.8068 214.743Z" fill="url(#paint27_linear_32_8782)"/>
<path d="M47.0189 209.681C54.0248 209.007 69.7817 209.681 69.7817 209.681L69.4192 213.454C62.936 212.502 46.3698 212.789 46.3698 212.789L47.0189 209.681Z" fill="#717FA2"/>
<path d="M68.1292 214.751C68.1292 214.81 66.5443 222.643 67.9606 222.07C69.377 221.497 69.4191 216.469 69.436 215.964C69.4529 215.459 70.2791 215.593 70.8186 215.374C71.3582 215.155 71.3498 214.035 71.3498 214.035C71.2064 213.85 68.1292 214.692 68.1292 214.751Z" fill="#F06B6C"/>
<path d="M70.3297 214.262C69.1662 214.262 69.0566 215.509 69.0145 216.477C68.9799 218.086 68.8135 219.689 68.5171 221.27C68.1461 222.659 65.7603 222.727 65.7603 222.727C65.7893 219.989 65.9779 217.256 66.3251 214.54C66.7888 212.384 71.3835 214.035 71.3835 214.035C71.3835 214.035 71.7207 214.279 70.3297 214.262Z" fill="url(#paint28_linear_32_8782)"/>
<path d="M42.4916 226.896C43.4442 212.351 46.9683 210.051 46.9683 210.051C43.0817 211.163 42.4916 226.896 42.4916 226.896Z" fill="url(#paint29_linear_32_8782)"/>
<path d="M433.084 164.537H407.37V231.242H433.084V164.537Z" fill="#DEEBF9"/>
<path d="M392.17 118.037H384.894V214.397H392.17V118.037Z" fill="url(#paint30_linear_32_8782)"/>
<path d="M414.823 116.555H384.894V231.242H414.823V116.555Z" fill="url(#paint31_linear_32_8782)"/>
<path d="M389.11 116.521H382.298V231.427H389.11V116.521Z" fill="#FCE2E6"/>
<path d="M358.995 155.837H334.858V231.52H358.995V155.837Z" fill="url(#paint32_linear_32_8782)"/>
<path d="M344.596 155.837H334.858V231.099H344.596V155.837Z" fill="url(#paint33_linear_32_8782)"/>
<path d="M382.146 174.804H359.366V230.821H382.146V174.804Z" fill="url(#paint34_linear_32_8782)"/>
<path d="M382.146 174.804L378.639 167.662H362.604L359.366 174.804H382.146Z" fill="url(#paint35_linear_32_8782)"/>
<path d="M359.366 174.804L365.495 174.812L368.21 167.636L362.604 167.662L359.366 174.804Z" fill="#F9D8D8"/>
<path d="M414.612 175.587C416.72 180.253 431.828 210.043 433.472 207.457L414.815 231.242L414.612 175.587Z" fill="#BDD8F2"/>
<path d="M347.294 214.195L338.163 215.366C338.163 215.366 336.806 215.239 335.423 220.79C333.796 227.528 336.806 237.39 336.806 237.39C336.806 237.39 338.391 240.102 340.111 239.294C341.831 238.485 344.183 237.146 344.183 237.146" fill="url(#paint36_linear_32_8782)"/>
<path d="M377.88 244.979C377.857 244.839 377.823 244.701 377.779 244.566V244.962L377.88 244.979Z" fill="#F48F90"/>
<path d="M487.192 248.045C486.772 249.146 486.291 250.223 485.75 251.27C485.75 251.27 472.362 253.081 448.107 250.942L446.118 251.11C446.118 251.11 446.843 252.239 442.324 252.079C437.805 251.919 427.149 250.79 427.149 250.79L426.078 248.365C426.078 248.365 425.159 250.79 421.509 250.63C417.858 250.47 418.431 248.205 418.431 248.205L340.085 239.336L339.293 235.723L440.874 244.482L444.668 248.188C444.668 248.188 485.894 249.662 487.192 248.045Z" fill="url(#paint37_linear_32_8782)"/>
<path d="M455.535 209.192C455.535 209.192 441.776 206.96 433.817 206.96C425.859 206.96 369.011 213.286 369.011 213.286C369.011 213.286 367.932 212.157 363.582 212.443L344.562 213.934C344.562 213.934 341.308 215.374 341.122 217C339.624 218.469 338.66 220.396 338.382 222.474C338.205 225.54 338.205 235.217 339.301 235.857C340.397 236.498 440.798 244.566 440.798 244.566L444.6 248.272C444.6 248.272 475.726 250.369 486.399 249.401C486.399 249.401 501.651 248.061 496.896 240.532C492.621 233.592 480.759 218.954 455.535 209.192Z" fill="url(#paint38_linear_32_8782)"/>
<path d="M445.73 216.393C430.622 208.4 413.39 209.655 413.39 209.655L340.439 217.791C339.328 219.108 338.638 220.728 338.458 222.441C338.273 225.506 338.273 235.175 339.369 235.824C340.465 236.472 440.874 244.524 440.874 244.524L444.668 248.238C444.668 248.238 465.576 249.645 478.997 249.619C486.501 247.227 485.548 242.646 485.548 242.646C485.548 235.925 460.779 224.394 445.73 216.393Z" fill="#F06B6C"/>
<path d="M442.998 222.449L437.375 230.349C437.375 230.349 433.48 229.002 425.26 228.614C417.04 228.227 407.843 228.033 407.843 228.033L408.281 218.996C408.281 218.996 431.398 217.337 442.998 222.449ZM394.438 219.846L341.645 222.449L341.434 227.46L393.704 227.848L394.438 219.846Z" fill="url(#paint39_linear_32_8782)"/>
<path d="M399.378 219.451L398.94 227.848H402.304L402.624 219.366L399.378 219.451Z" fill="url(#paint40_linear_32_8782)"/>
<path d="M338.399 229.086L418.853 230.77L418.533 233.567L338.441 230.989L338.399 229.086ZM497.545 241.484C497.545 241.484 479.537 242.974 470.449 241.248C461.36 239.521 440.941 234.013 432.157 232.564V235.462C432.157 235.462 463.35 242.317 466.225 242.974C475.844 245.147 485.27 243.934 489.704 244.036C492.484 244.077 495.261 243.86 498 243.387L497.545 241.484Z" fill="#EF4849"/>
<path d="M489.156 236.228C489.375 236.514 490.783 239.024 490.783 239.024L494.029 238.931L492.596 236.219L489.156 236.228Z" fill="url(#paint41_linear_32_8782)"/>
<path d="M471.123 216.688C467.818 215.231 464.674 213.884 463.822 213.58C461.993 212.898 452.019 213.867 452.019 213.867C452.019 214.153 450.611 214.347 451.589 215.029C452.567 215.711 465.812 224.184 465.812 224.184C465.812 224.184 469.462 223.283 471.966 224.563C474.47 225.843 479.436 228.901 483.769 228.715C485.7 228.623 486.357 228.353 486.509 228.075C481.813 223.728 476.654 219.909 471.123 216.688Z" fill="#F6B2B3"/>
<path d="M369.264 212.831C369.264 212.831 369.264 214.246 368.463 214.246C367.662 214.246 355.691 215.711 355.691 215.711C355.691 215.711 353.566 213.572 355.691 213.109C360.165 212.233 364.757 212.139 369.264 212.831Z" fill="url(#paint42_linear_32_8782)"/>
<path d="M467.203 224.976C466.672 225.077 477.041 231.823 477.041 231.823L479.453 230.029L472.708 225.7C471.025 224.791 469.065 224.533 467.203 224.976Z" fill="url(#paint43_linear_32_8782)"/>
<path d="M448.107 211.5C448.107 211.5 466.731 222.449 475.794 224.041C479.225 224.656 481.012 224.496 481.619 223.889C473.721 217.701 464.925 212.751 455.535 209.209C455.535 209.209 445.941 207.735 448.107 211.5Z" fill="url(#paint44_linear_32_8782)"/>
<path opacity="0.99" d="M245.763 230.341C245.763 230.341 430.133 253.351 454.843 255.919C479.554 258.488 507.687 252.55 466.798 249.468C425.909 246.385 247.601 226.728 247.601 226.728L245.763 230.341Z" fill="url(#paint45_linear_32_8782)"/>
<path d="M339.655 215.096L248.216 224.757C247.639 224.919 247.138 225.281 246.803 225.777C246.468 226.274 246.321 226.874 246.387 227.469C246.387 228.311 245.881 229.01 246.168 229.65L336.814 237.281C336.814 237.281 334.757 226.643 336.511 219.965C337.017 218.019 338.484 217.185 339.655 215.096Z" fill="url(#paint46_linear_32_8782)"/>
<path d="M336.637 235.588L336.966 237.727L246.168 229.617L245.957 228.85L336.637 235.588Z" fill="url(#paint47_linear_32_8782)"/>
<path opacity="0.76" d="M333.324 222.626L333.088 226.761L247.028 226.98L247.626 226.02L333.324 222.626Z" fill="url(#paint48_linear_32_8782)"/>
<path d="M404.352 239.184L397.549 238.805C397.46 238.802 397.375 238.77 397.306 238.714C397.238 238.657 397.19 238.58 397.169 238.494C396.537 234.392 396.824 222.297 397.169 219.038C397.513 217.042 398.141 215.105 399.033 213.286C399.252 212.789 399.479 212.283 399.538 212.081C399.521 212.023 399.521 211.962 399.538 211.904C399.538 211.525 399.589 211.508 407.261 210.927C407.335 210.92 407.41 210.934 407.477 210.967C407.544 210.999 407.6 211.05 407.64 211.113C407.681 211.169 407.703 211.237 407.703 211.306C407.703 211.376 407.681 211.444 407.64 211.5C407.64 211.5 405.819 213.631 405.01 218.735C404.201 223.839 404.791 238.62 404.799 238.814C404.799 238.864 404.788 238.914 404.766 238.959C404.744 239.004 404.712 239.044 404.673 239.075C404.629 239.113 404.578 239.143 404.523 239.162C404.468 239.18 404.41 239.188 404.352 239.184ZM397.894 238.106L403.948 238.452C403.846 236.017 403.391 223.485 404.175 218.634C404.483 216.185 405.27 213.821 406.494 211.677C404.209 211.854 401.216 212.106 400.28 212.216C400.137 212.667 399.959 213.106 399.749 213.53C398.878 215.292 398.262 217.17 397.92 219.105C397.599 222.264 397.313 233.794 397.894 238.106Z" fill="url(#paint49_linear_32_8782)"/>
<path d="M258.729 377.512C259.01 377.483 259.292 377.483 259.573 377.512H259.682C259.365 377.482 259.046 377.482 258.729 377.512Z" fill="url(#paint50_linear_32_8782)"/>
<path d="M310.241 316.779C310.241 316.779 296.71 345.693 285.623 377.538L266.427 381.606C235.604 358.436 235.065 324.081 212.361 317.04C242.441 324.359 310.241 316.779 310.241 316.779Z" fill="url(#paint51_linear_32_8782)"/>
<path d="M322.018 316.703L330.871 317.545C330.871 317.545 320.956 330.314 283.187 336.353C265.786 339.14 261.267 341.869 238.673 329.783C232.949 326.743 217.453 317.545 206.476 315.549C204.718 315.157 203.113 314.261 201.856 312.972C237.56 316.594 273.365 316.173 321.959 317.276C321.997 317.28 322.035 317.276 322.071 317.265C322.108 317.255 322.141 317.237 322.171 317.213C322.2 317.189 322.224 317.16 322.242 317.126C322.26 317.093 322.272 317.057 322.276 317.019C322.279 316.981 322.276 316.943 322.265 316.907C322.254 316.871 322.236 316.837 322.212 316.808C322.189 316.779 322.159 316.754 322.126 316.736C322.093 316.718 322.056 316.707 322.018 316.703Z" fill="url(#paint52_linear_32_8782)"/>
<path d="M197.405 232.783C197.405 232.783 193.476 230.998 184.304 229.313C182.07 229.423 179.102 227.629 175.544 229.734C173.319 230.888 173.858 231.84 172.787 233.465C171.034 236.093 169.289 237.879 169.289 242.452C168.387 244.499 172.737 251.068 174.861 254.639C176.986 258.21 178.52 255.06 181.909 258.951C183.874 261.209 192.869 267.256 192.869 267.256L192.127 279.392L199.336 288.539L199.496 240.035L197.405 232.783Z" fill="url(#paint53_linear_32_8782)"/>
<path d="M191.967 309.822C187.187 306.773 183.368 291.9 180.771 289.794C175.57 287.857 174.667 282.492 174.246 278.601C173.605 272.933 175.089 269.092 181.033 266.995C182.946 265.993 185.703 265.731 189.05 264.679C192.397 263.626 198.122 268.511 198.863 275.19C199.605 281.869 199.074 307.035 199.074 307.035C199.074 307.035 197.388 313.393 206.502 315.55C214.831 317.596 221.196 325.269 234.879 332.942C235.68 337.515 243.849 361.535 257.052 377.454C254.776 375.828 236.312 349.753 229.787 337.776C226.659 332.049 224.729 324.637 222.52 322.009C222.098 319.382 209.469 316.863 200.347 313.865C197.402 312.858 194.588 311.501 191.967 309.822Z" fill="url(#paint54_linear_32_8782)"/>
<path d="M194.8 231.84C194.8 231.84 203.61 238.51 193.114 249.282C186.588 256.02 178.478 251.119 183.57 253.805L190.281 264.561C190.281 264.561 197.026 266.607 198.079 274.962C198.712 280.016 199.293 287.596 199.293 287.596L199.352 285.33L199.614 245.029C199.614 245.029 199.454 238.83 199.083 237.879C197.936 233.095 198.712 231.991 194.8 231.84Z" fill="#FA6B6B"/>
<path d="M188.915 265.1C188.915 265.1 182.601 270.355 189.126 276.049C190.559 279.418 183.225 277.994 181.968 278.356C180.712 278.719 180.282 278.255 179.439 276.259C178.596 274.263 178.596 271.795 180.872 268.957C183.373 267.326 186.077 266.029 188.915 265.1Z" fill="#F7B3B4"/>
<path d="M190.281 264.561C190.812 264.83 201.241 267.449 195.685 280.563C195.685 280.563 193.156 284.505 181.151 285.136C183.435 287.452 186.032 295.176 187.996 297.905C190.964 301.956 193.249 302.688 197.708 300.642C196.326 302.217 193.198 303.531 194.732 306.209C195.845 308.205 198.45 309.519 199.875 311.203C198.079 308.786 199.352 304.845 199.403 301.796C199.454 295.058 199.352 285.246 199.352 281.456C199.352 278.466 199.614 271.349 198.509 268.688C197.928 267.374 197.287 268.165 196.655 266.902C196.494 264.956 190.391 263.643 190.289 264.535" fill="#EF4849"/>
<path opacity="0.39" d="M175.704 242.764C173.428 243.555 178.31 249.232 181.606 245.711C179.532 246.183 176.033 244.187 175.704 242.764Z" fill="url(#paint55_linear_32_8782)"/>
<path d="M180.797 247.657C182.761 247.177 183.663 245.24 184.245 243.395C186.9 234.973 196.553 238.401 196.891 241.239C197.228 244.078 195.516 246.655 193.813 248.651C190.525 252.491 185.914 254.117 181.167 252.432C179.625 251.96 178.2 251.168 176.984 250.109C175.768 249.05 174.789 247.746 174.111 246.284C175.654 249.122 180.215 250.756 183.292 250.074C181.488 251.068 177.93 248.44 177.087 246.865C177.684 247.252 178.359 247.504 179.063 247.605C179.768 247.705 180.486 247.651 181.167 247.446" fill="#FB8989"/>
<path d="M195.07 233.465C193.104 233.24 191.115 233.569 189.327 234.414C187.54 235.26 186.024 236.588 184.953 238.249C182.306 242.292 184.27 246.672 182.618 247.025C180.965 247.379 177.264 244.819 177.264 244.819C177.264 244.819 173.816 232.623 185.804 231.991C188.705 231.52 195.07 233.465 195.07 233.465Z" fill="#FBD9D9"/>
<path d="M176.075 285.751C176.075 285.751 186.049 281.338 188.224 282.542C190.399 283.747 199.47 286.484 199.31 288.59C198.197 302.15 200.322 311.709 204.301 311.187C206.687 312.602 204.563 315.398 209.444 316.383C209.553 316.383 209.865 316.914 211.13 322.481C212.395 328.048 214.848 334.828 214.848 334.828L223.498 377.563L202.927 321.218C202.927 321.218 197.413 315.128 193.324 311.953C189.236 308.778 187.01 303.287 185.526 301.004C182.609 292.708 176.084 285.768 176.084 285.768" fill="#FA6B6B"/>
<path d="M190.281 264.561C188.595 267.82 191.605 275.021 188.367 278.171C185.712 280.748 180.839 284.58 177.407 285.212C178.36 285.894 182.019 285.271 180.215 285.162C186.639 285.111 192.153 283.797 194.859 281.43C200.963 276.124 196.714 265.874 190.247 264.586" fill="url(#paint56_linear_32_8782)"/>
<path d="M214.376 317.697L218.591 319.331C215.885 318.329 213.128 317.436 210.371 316.594L214.376 317.697Z" fill="url(#paint57_linear_32_8782)"/>
<path d="M209.604 330.676C208.221 325.69 208.011 318.59 207.075 313.545C213.921 316.653 225.428 320.224 240.705 335.569C249.355 344.236 256.723 370.412 266.595 377.513L274.132 381.581H227.966C222.318 370.337 212.943 342.888 209.604 330.676Z" fill="url(#paint58_linear_32_8782)"/>
<path d="M198.408 185.332C194.579 183.386 190.361 182.327 186.066 182.232C180.813 182.072 181.395 182.072 180.072 182.544C178.748 183.016 173.226 190.217 173.226 196.314C173.226 198.782 173.015 199.304 174.608 201.25C176.202 203.196 183.452 210.658 188.123 213.285C195.12 217.227 193.316 217.909 193.316 217.909L197.936 235.2L199.049 237.879L198.467 208.131C198.518 208.131 206.797 198.782 198.408 185.332Z" fill="url(#paint59_linear_32_8782)"/>
<path d="M179.953 189.745C177.509 195.262 176.446 201.309 180.856 206.295C184.455 210.397 189.337 212.081 193.797 212.974C191.883 213.446 190.028 213.968 188.173 213.286C194.168 216.857 197.135 211.972 199.369 207.036C209.655 184.018 186.049 182.283 179.979 189.745" fill="url(#paint60_linear_32_8782)"/>
<path d="M313.9 318.91H217.984C206.738 318.91 197.565 309.586 197.565 298.031V58.8368C197.565 47.3825 206.687 38 217.984 38H313.9C325.172 38 334.319 47.3235 334.319 58.8705V298.065C334.319 309.586 325.172 318.91 313.9 318.91Z" fill="#242F65"/>
<path d="M313.331 46H299.117V48.712C299.131 50.389 298.48 52.0033 297.306 53.2026C296.133 54.4018 294.532 55.0885 292.853 55.113H238.535C236.856 55.0885 235.255 54.4018 234.082 53.2026C232.908 52.0033 232.257 50.389 232.271 48.712V46H217.938C214.737 46.0422 211.683 47.3504 209.446 49.6379C207.208 51.9254 205.969 55.0057 206.001 58.204V298.013C205.971 301.21 207.211 304.288 209.449 306.574C211.686 308.859 214.739 310.166 217.938 310.208H313.281C316.481 310.166 319.533 308.859 321.771 306.574C324.008 304.288 325.248 301.21 325.219 298.013V58.204C325.261 55.0111 324.033 51.9319 321.804 49.6434C319.575 47.3549 316.527 46.0444 313.331 46Z" fill="url(#paint61_linear_32_8782)"/>
<path d="M280.691 49.8165C281.394 49.8165 281.964 49.2358 281.964 48.5195C281.964 47.8031 281.394 47.2224 280.691 47.2224C279.988 47.2224 279.418 47.8031 279.418 48.5195C279.418 49.2358 279.988 49.8165 280.691 49.8165Z" fill="url(#paint62_linear_32_8782)"/>
<path d="M198.358 75.353H196.823V86.4115H198.358V75.353Z" fill="url(#paint63_linear_32_8782)"/>
<path d="M198.358 95.5835H196.823V115.915H198.358V95.5835Z" fill="url(#paint64_linear_32_8782)"/>
<path d="M198.358 121.44H196.823V141.771H198.358V121.44Z" fill="url(#paint65_linear_32_8782)"/>
<path d="M334.319 102.304H333.526V135H334.319V102.304Z" fill="url(#paint66_linear_32_8782)"/>
<path d="M314.431 317.066H217.563C207.109 317.066 198.568 308.391 198.568 297.694V57.4136C198.568 46.7257 207.058 38.0422 217.563 38.0422H314.431C324.876 38.0422 333.417 46.7172 333.417 57.4557V297.652C333.366 308.357 324.876 317.066 314.431 317.066ZM217.563 39.3561C212.815 39.4227 208.286 41.3653 204.969 44.7588C201.651 48.1524 199.813 52.7206 199.858 57.4641V297.711C199.813 302.455 201.651 307.023 204.969 310.416C208.286 313.81 212.815 315.753 217.563 315.819H314.431C324.194 315.819 332.135 307.683 332.135 297.711V57.4641C332.135 47.4921 324.185 39.3561 314.431 39.3561H217.563Z" fill="url(#paint67_linear_32_8782)"/>
<path opacity="0.42" d="M213.373 312.298H318.427C318.427 312.298 313.917 314.513 262.136 314.412C220.159 314.353 213.373 312.298 213.373 312.298Z" fill="url(#paint68_linear_32_8782)"/>
<path d="M271.03 381.581C260.365 368.315 283.313 340.572 293.169 326.574C299.391 317.68 322.305 292.885 330.592 285.692C332.666 283.907 334.74 282.163 336.983 280.58C338.231 279.738 338.07 279.738 338.07 279.738C337.995 275.215 337.952 267.946 338.07 261.916C338.138 256.812 337.944 251.877 337.86 246.756C337.759 241.45 338.214 233.027 338.214 233.027C330.972 219.08 330.103 214.498 328.864 206.371C327.886 199.827 329.286 185.433 338.93 185.062C343.255 185.904 344.689 189.577 345.844 193.173C347.479 198.455 349.725 203.529 352.537 208.291C354.835 211.924 357.369 215.402 360.125 218.701C362.325 221.421 365.706 224.689 366.811 227.966C370.048 237.34 368.623 247.211 369.635 256.804C370.638 265.917 373.066 274.895 374.23 284.067C375.317 292.489 375.191 301.383 371.27 309.115C370.14 311.337 368.835 313.466 367.367 315.482C366.086 317.251 365.462 319.474 364.669 321.445C362.983 325.656 361.238 329.792 359.501 333.935C357.107 339.578 340.6 375.836 338.264 381.522H271.03V381.581Z" fill="url(#paint69_linear_32_8782)"/>
<path d="M351.138 204.695L344.065 206.101C344.065 206.101 342.724 207.609 341.215 204.813C339.706 202.017 337.742 187.193 337.742 187.193C337.742 187.193 341.594 184.456 344.191 186.073C345.405 191.876 351.02 204.493 351.138 204.695Z" fill="#FBD9D9"/>
<path d="M351.138 204.695C351.981 206.775 354.738 212.115 356.635 213.479C360.639 216.318 363.582 222.744 363.582 222.744C363.582 222.744 351.779 217.286 347.083 213.42C342.387 209.555 343.171 206.43 343.171 206.43L351.138 204.695Z" fill="#F7B3B4"/>
<path d="M335.533 185.888C335.533 185.888 332.759 194.799 335.533 201.604C338.307 208.409 357.335 227.603 358.431 232.564C359.526 237.525 352.79 264.005 366.145 278.508C366.145 278.508 376.936 298.031 375.275 297.34C346.543 284.833 338.07 279.721 338.07 279.721L337.818 243.286L338.214 233.07C338.239 233.019 318.427 198.454 335.533 185.888Z" fill="url(#paint70_linear_32_8782)"/>
<path opacity="0.25" d="M365.394 239.942C365.47 238.999 365.698 237.517 365.032 236.641C364.366 235.765 362.781 235.866 361.82 235.419C363.524 235.331 365.231 235.513 366.878 235.958C366.229 234.901 365.346 234.007 364.296 233.344C363.247 232.681 362.059 232.267 360.825 232.135C358.801 231.874 354.974 231.773 353.549 230.181C356.036 230.004 358.532 229.936 361.019 229.659C362.553 229.456 364.34 229.044 365.748 229.844C365.074 228.437 364.711 226.871 364.062 225.523C363.413 224.176 362.798 221.935 361.6 221.017L362.502 220.84C364.339 223.101 366.002 225.497 367.477 228.008C371.557 239.092 368.168 252.331 371.877 265.47C372.147 269.252 373.302 274.524 374.246 279.965C374.204 280.075 374.154 280.184 374.103 280.285C373.757 279.561 373.58 278.778 373.26 277.994C371.414 272.789 369.306 267.753 368.041 262.371C367.103 258.376 366.421 254.325 366.001 250.243C365.698 246.823 365.116 243.37 365.394 239.942Z" fill="#FEDADA"/>
<path d="M338.205 267.719C336.148 275.712 359.392 284.951 365.462 291.352C366.01 291.815 366.001 291.765 365.512 291.302C359.307 291.259 345.279 287.604 340.018 284.808C343.011 289.297 346.762 294.451 366.085 302.166C345.068 311.473 316.437 363.178 316.058 381.58H262.498C253.545 365.216 299.483 313.52 315.417 300.836C328.139 287.023 330.289 286.181 337.91 279.78C338.585 279.232 338.172 270.052 338.205 267.736" fill="url(#paint71_linear_32_8782)"/>
<g opacity="0.85">
<path opacity="0.59" d="M136.755 107.762L184.354 154.885L207.151 154.077L136.755 107.762Z" fill="url(#paint72_linear_32_8782)"/>
<path opacity="0.85" d="M116.934 87.9108C116.816 87.9108 111.033 86.8664 109.591 90.2269C109.591 90.2269 108.032 91.2713 108.816 93.8317C109.6 96.3921 110.038 97.2006 111.707 98.3545C113.377 99.5083 120.711 103.812 120.711 103.812C120.711 103.812 121.268 104.04 120.155 104.974C119.042 105.909 114.152 108.807 114.152 108.807C114.152 108.807 111.48 107.291 109.144 108.335C106.809 109.379 106.699 110.862 106.919 111.822L91.6423 118.012L94.0872 118.711L109.212 115.115C109.515 115.497 109.894 115.812 110.325 116.041C111.053 116.232 111.799 116.348 112.55 116.387L112.77 116.159L112.323 115.923C112.137 115.824 111.984 115.672 111.885 115.486C111.786 115.3 111.745 115.089 111.766 114.879C112.834 115.003 113.915 114.923 114.953 114.643L117.288 115.224L117.398 114.989L117.288 114.29L116.445 113.944L116.555 113.245L119.084 112.664C119.77 113.12 120.52 113.472 121.31 113.708L122.203 113.944V113.102L121.529 112.529L121.419 111.948L130.187 110.432L132.969 110.668L124.741 112.959L125.584 113.422L134.858 111.451C136.372 111.933 137.942 112.216 139.528 112.293C142.058 112.411 144.317 111.131 144.317 110.786C144.421 110.249 144.495 109.706 144.536 109.16L161.777 104.166L161.221 103.585L144.089 107.796L142.091 107.063L146.307 105.556C147.004 105.692 147.712 105.768 148.423 105.783L149.536 106.364L150.311 106.137L150.092 105.202C150.092 105.202 150.935 104.511 151.087 104.157C152.1 103.785 153.143 103.503 154.206 103.315C154.626 103.94 155.258 104.391 155.985 104.587L155.757 102.734L160.209 101.572C160.64 102.282 161.309 102.816 162.097 103.079L161.887 101.168L183.806 94.6655L183.25 93.2758L149.982 99.6347C149.361 99.025 148.604 98.5707 147.773 98.3087C146.942 98.0468 146.062 97.9845 145.202 98.1271C144.996 98.7921 144.583 99.3746 144.024 99.7908C143.465 100.207 142.788 100.435 142.091 100.443C141.864 100.443 136.864 100.679 136.864 100.679L121.15 89.4184C121.15 89.6458 118.738 88.374 116.934 87.9108Z" fill="#CDE2F5"/>
<path opacity="0.85" d="M108.95 93.8317C109.726 96.2657 110.173 97.2006 111.842 98.3545C113.511 99.5083 120.846 103.812 120.846 103.812C120.846 103.812 121.403 104.04 120.29 104.974C119.177 105.909 114.287 108.807 114.287 108.807C114.287 108.807 111.615 107.291 109.279 108.335C106.944 109.379 106.834 110.862 107.054 111.822L91.7098 118.012L94.1547 118.711L109.279 115.115C109.583 115.497 109.961 115.812 110.392 116.041C111.12 116.232 111.866 116.348 112.618 116.387L112.837 116.159L112.399 115.923C112.21 115.819 112.058 115.658 111.965 115.463C111.871 115.269 111.84 115.05 111.876 114.837C112.941 114.976 114.022 114.91 115.063 114.643L117.398 115.224L117.508 114.989L117.398 114.29L116.555 113.944L116.665 113.245L119.194 112.664C119.88 113.12 120.63 113.472 121.419 113.708L122.313 113.944V113.102L121.647 112.529L121.529 111.948L130.297 110.432L133.079 110.668L124.851 112.959L125.744 113.422L135.018 111.451C136.532 111.934 138.102 112.217 139.689 112.293C142.218 112.411 144.469 111.131 144.469 110.786C144.573 110.249 144.646 109.706 144.688 109.16L161.929 104.166L161.372 103.585L144.241 107.796L142.226 107.063L146.442 105.556C147.139 105.692 147.847 105.768 148.558 105.783L149.671 106.364L150.446 106.137L150.227 105.202C150.227 105.202 151.112 104.511 151.23 104.157C151.34 103.93 154.341 103.315 154.341 103.315C154.761 103.94 155.393 104.391 156.12 104.587L155.901 102.734L160.344 101.572C160.779 102.281 161.451 102.815 162.241 103.079L161.996 101.168L183.916 94.6655L183.461 93.5874L142.226 101.605L132.109 102.65L132.329 103.113C132.217 103.298 132.048 103.443 131.848 103.526C131.648 103.61 131.427 103.627 131.216 103.576L129.192 102.852C129.091 102.833 128.995 102.793 128.911 102.734C128.826 102.675 128.755 102.599 128.703 102.51C128.65 102.422 128.617 102.323 128.605 102.221C128.594 102.119 128.604 102.015 128.636 101.917C128.636 101.917 111.615 92.0882 110.839 91.7345C110.063 91.3808 111.058 89.8816 111.058 89.8816L109.726 90.1174C109.238 90.5871 108.903 91.1926 108.765 91.8551C108.627 92.5176 108.691 93.2064 108.95 93.8317Z" fill="url(#paint73_linear_32_8782)"/>
<path opacity="0.85" d="M113.84 110.542C113.574 109.567 112.935 108.735 112.061 108.225C111.084 108.058 110.08 108.178 109.17 108.571C106.834 109.615 106.725 111.097 106.944 112.049C107.054 112.403 107.5 114.492 110.316 113.675C113.284 112.63 114.405 111.822 113.84 110.542Z" fill="url(#paint74_linear_32_8782)"/>
<path opacity="0.85" d="M144.646 109.379L144.199 107.905L142.226 107.181H142.117C141.132 107.473 140.272 108.083 139.672 108.916L144.452 111.123L144.562 111.005C144.562 110.66 144.671 109.851 144.671 109.379H144.646Z" fill="url(#paint75_linear_32_8782)"/>
<path opacity="0.85" d="M110.19 89.4184L111.749 88.9552L114.279 88.6014L114.835 89.5363L109.608 90.2269L110.19 89.4184ZM114.751 88.5762C114.842 88.8821 114.991 89.1679 115.189 89.4184L116.976 89.9995L116.53 88.6014L114.751 88.5762ZM116.976 88.5762L117.415 89.9743L119.101 89.7385C118.479 89.1935 117.736 88.8038 116.934 88.6014L116.976 88.5762Z" fill="url(#paint76_linear_32_8782)"/>
<path opacity="0.85" d="M139.09 100.797L138.972 96.0298L140.085 96.9647L140.869 100.679L139.09 100.797Z" fill="url(#paint77_linear_32_8782)"/>
<path opacity="0.85" d="M116.622 113.447C116.811 113.013 116.88 112.536 116.82 112.066C116.761 111.596 116.576 111.151 116.285 110.777C115.747 110.073 115.115 109.447 114.405 108.916C114.405 108.916 111.623 107.409 109.288 108.453C106.952 109.497 106.843 110.98 107.062 111.94H106.952C107.046 112.246 107.198 112.532 107.399 112.782C107.399 112.782 107.399 113.944 110.291 114.525C111.404 114.753 112.407 114.871 113.292 115.107C113.931 115.16 114.574 115.079 115.181 114.871L117.516 115.452L117.634 115.224L117.516 114.525L116.631 114.18L116.622 113.447Z" fill="url(#paint78_linear_32_8782)"/>
<path opacity="0.85" d="M110.282 108.807C110.173 108.807 107.947 109.497 107.838 111.123C107.728 112.748 108.723 113.329 111.21 112.285C113.697 111.241 112.989 110.314 112.651 109.497C112.361 109.173 111.984 108.936 111.566 108.814C111.147 108.692 110.703 108.689 110.282 108.807Z" fill="url(#paint79_linear_32_8782)"/>
<path opacity="0.85" d="M91.4906 118.088C91.4906 117.97 91.6002 114.837 91.6002 114.837L92.3758 115.073L93.379 117.389L91.4906 118.088Z" fill="url(#paint80_linear_32_8782)"/>
<path opacity="0.85" d="M183.351 93.478C183.351 93.3601 184.245 89.4185 184.245 89.4185L184.464 90.5807L184.017 94.7919L183.351 93.478Z" fill="url(#paint81_linear_32_8782)"/>
<path opacity="0.85" d="M149.544 102.414C150.218 102.935 150.751 103.615 151.095 104.393C151.095 104.393 152.099 102.532 150.21 100.182L149.434 100.292C149.704 100.968 149.742 101.714 149.544 102.414Z" fill="url(#paint82_linear_32_8782)"/>
<path opacity="0.85" d="M145.312 98.3545C145.312 98.3545 142.42 98.9357 142.091 101.606V101.723C141.864 104.511 145.093 104.393 148.322 103.231C151.551 102.069 149.544 97.8913 145.312 98.3545Z" fill="url(#paint83_linear_32_8782)"/>
<path opacity="0.85" d="M145.43 98.8176C145.43 98.8176 142.977 99.2809 142.901 101.142C142.825 103.004 144.233 103.576 146.349 103.113C147.799 102.768 149.131 102.187 149.021 101.024C148.912 99.862 147.875 98.5902 145.43 98.8176Z" fill="url(#paint84_linear_32_8782)"/>
</g>
<path d="M374.727 293.066C374.887 289.409 374.72 285.745 374.229 282.117C373.977 280.113 373.656 278.125 373.311 276.137C373.524 276.864 373.777 277.578 374.069 278.277C374.12 278.176 374.17 278.066 374.213 277.957C373.268 272.516 372.113 267.243 371.844 263.462C368.134 250.323 371.523 237.083 367.443 225.999C366.105 223.717 364.606 221.533 362.958 219.464C361.895 217.467 359.585 213.568 356.635 211.471C354.738 210.106 351.989 204.733 351.138 202.686L350.548 202.813L351.146 202.695C351.028 202.493 345.371 189.876 344.199 184.073C343.688 183.794 343.125 183.623 342.544 183.573C341.964 183.522 341.379 183.592 340.827 183.778C340.224 183.466 339.58 183.242 338.913 183.113C337.743 183.154 336.593 183.441 335.541 183.955V183.888L335.322 184.073C332.531 185.53 330.786 188.512 329.775 191.897C328.94 194.472 328.541 197.168 328.594 199.873C328.594 200.025 328.594 200.168 328.594 200.311C328.59 200.35 328.59 200.39 328.594 200.429C328.579 201.764 328.664 203.099 328.847 204.421C330.086 212.532 330.955 217.131 338.197 231.078C338.197 231.078 337.742 239.5 337.843 244.806C337.843 245.43 337.843 246.036 337.885 246.651L338.003 266.022C338.003 270.233 338.003 274.386 338.07 277.434C338.052 277.566 337.999 277.691 337.919 277.797C337.413 278.226 336.924 278.639 336.46 279.009C334.428 280.492 332.506 282.084 330.601 283.726C330.027 284.231 329.378 284.829 328.67 285.486C324.032 289.721 319.611 294.188 315.426 298.869C311.531 301.977 306.152 307.738 300.326 314.872C263.956 314.257 234.651 314.029 205.743 311.351C205.666 310.914 205.499 310.497 205.252 310.127C205.005 309.757 204.684 309.443 204.31 309.204C201.865 309.524 200.094 306.037 199.403 300.175C199.403 300.048 199.403 299.922 199.403 299.796C199.403 294.288 199.403 286.699 199.361 282.058L199.614 243.097C199.614 243.097 199.563 241.109 199.453 239.214V238.052L199.335 237.639C199.309 237.07 199.224 236.506 199.083 235.954C199.083 235.862 199.082 235.786 199.023 235.693L198.459 206.914C198.771 206.308 199.066 205.685 199.352 205.061L199.479 204.741C201.418 201.65 204.858 193.733 198.391 183.357C194.569 181.405 190.357 180.337 186.066 180.232C180.813 180.072 181.395 180.072 180.071 180.544C178.748 181.016 173.226 188.217 173.226 194.314C173.226 196.782 173.015 197.304 174.608 199.25C176.202 201.196 183.452 208.658 188.123 211.285C195.12 215.227 193.316 215.909 193.316 215.909L197.16 230.312C196.42 229.976 195.612 229.814 194.8 229.84C191.354 228.781 187.846 227.937 184.295 227.313C182.061 227.414 179.093 225.629 175.536 227.734C173.31 228.888 173.85 229.84 172.779 231.465C171.025 234.093 169.28 235.879 169.28 240.452C168.378 242.499 172.728 249.068 174.853 252.639C176.977 256.21 178.512 253.06 181.901 256.951C183.022 258.232 186.394 260.741 189.101 262.662H189.016C185.644 263.714 182.913 263.976 180.999 264.978C175.097 267.075 173.571 270.916 174.212 276.584C174.383 279.059 175.03 281.478 176.117 283.709H176.067L176.227 283.878C176.743 284.777 177.413 285.578 178.208 286.244C181.297 290.067 183.761 294.354 185.509 298.945C186.993 301.261 189.227 306.778 193.308 309.894C197.388 313.01 202.91 319.159 202.91 319.159L213.406 348.14C218.979 365.102 219.653 375.304 223.262 382.522H343.188C345.523 376.836 357.107 337.578 359.501 331.935C361.238 327.792 362.983 323.639 364.669 319.445C365.462 317.474 366.085 315.234 367.367 313.482C368.835 311.466 370.14 309.337 371.27 307.115C373.15 303.321 374.294 299.206 374.643 294.987L375.325 295.281C375.671 295.5 375.384 294.565 374.727 293.066Z" fill="url(#paint85_linear_32_8782)"/>
<path fill-rule="evenodd" clip-rule="evenodd" d="M282.738 88.1445H277.848C277.699 88.1445 277.578 88.2651 277.578 88.4138V105.028C277.578 105.177 277.699 105.297 277.848 105.297H282.738C282.886 105.297 283.007 105.177 283.007 105.028V88.4165C283.007 88.2678 282.886 88.1472 282.738 88.1472" fill="#132968"/>
<path fill-rule="evenodd" clip-rule="evenodd" d="M284.815 96.7223C284.815 91.4957 288.796 87.7017 294.281 87.7017C299.877 87.7017 303.781 91.4109 303.781 96.7223C303.781 102.034 299.875 105.743 294.281 105.743C288.796 105.743 284.815 101.949 284.815 96.7223ZM290.308 96.7236C290.308 98.8953 291.681 100.822 294.281 100.822C296.881 100.822 298.288 98.8953 298.288 96.7236C298.288 94.5089 296.881 92.624 294.281 92.624C291.681 92.624 290.308 94.5156 290.308 96.7236Z" fill="#132968"/>
<path fill-rule="evenodd" clip-rule="evenodd" d="M275.347 95.1173C275.347 90.8197 272.073 87.7002 267.56 87.7002C265.475 87.7002 263.695 88.6588 262.774 89.6443C262.706 89.7178 262.611 89.7596 262.511 89.7596C262.411 89.7596 262.315 89.7178 262.247 89.6443C261.349 88.6615 259.568 87.7042 257.437 87.7042C252.94 87.7042 249.675 90.8238 249.675 95.1213V105.033C249.675 105.182 249.796 105.303 249.944 105.303H254.853C255.002 105.303 255.122 105.182 255.122 105.033V95.3395C255.122 94.0725 255.915 92.7908 257.433 92.7908C258.984 92.7908 259.796 94.0725 259.796 95.3395V105.033C259.796 105.182 259.916 105.303 260.065 105.303H264.979C265.128 105.303 265.248 105.182 265.248 105.033V95.3395C265.248 94.0725 266.04 92.7908 267.557 92.7908C269.11 92.7908 269.92 94.0725 269.92 95.3395V105.033C269.92 105.182 270.041 105.303 270.189 105.303H275.077C275.226 105.303 275.346 105.182 275.346 105.033L275.347 95.1173Z" fill="#132968"/>
<path fill-rule="evenodd" clip-rule="evenodd" d="M229.165 96.7223C229.165 91.4109 233.072 87.7017 238.664 87.7017C244.15 87.7017 248.131 91.4957 248.131 96.7223C248.131 101.949 244.15 105.743 238.664 105.743C233.069 105.743 229.165 102.034 229.165 96.7223ZM234.659 96.7236C234.659 98.8953 236.065 100.822 238.664 100.822C241.264 100.822 242.638 98.8953 242.638 96.7236C242.638 94.5089 241.264 92.624 238.664 92.624C236.065 92.624 234.659 94.5156 234.659 96.7236Z" fill="#132968"/>
<path fill-rule="evenodd" clip-rule="evenodd" d="M227.039 83.0001C229.087 82.983 230.8 84.5517 230.963 86.5936C231.141 88.7693 229.525 90.6787 227.35 90.8629C227.23 90.8737 227.11 90.879 226.991 90.879C224.937 90.8912 223.212 89.3337 223.016 87.2883C222.823 85.0883 224.425 83.2115 226.663 83.0163C226.787 83.0001 226.911 83.0001 227.039 83.0001Z" fill="#FA6B6B"/>
<defs>
<linearGradient id="paint0_linear_32_8782" x1="149.612" y1="331.813" x2="361.837" y2="119.386" gradientUnits="userSpaceOnUse">
<stop stop-color="#FDB5B5" stop-opacity="0"/>
<stop offset="0.07" stop-color="#FDB5B5" stop-opacity="0.03"/>
<stop offset="0.19" stop-color="#FDB5B5" stop-opacity="0.12"/>
<stop offset="0.34" stop-color="#FDB5B5" stop-opacity="0.27"/>
<stop offset="0.51" stop-color="#FDB5B5" stop-opacity="0.48"/>
<stop offset="0.68" stop-color="#FDB5B5" stop-opacity="0.72"/>
</linearGradient>
<linearGradient id="paint1_linear_32_8782" x1="175.022" y1="177.929" x2="175.022" y2="233.381" gradientUnits="userSpaceOnUse">
<stop offset="0.69" stop-color="#BFD2E8"/>
<stop offset="0.81" stop-color="#BFD2E8"/>
</linearGradient>
<linearGradient id="paint2_linear_32_8782" x1="161.33" y1="177.929" x2="161.33" y2="233.07" gradientUnits="userSpaceOnUse">
<stop stop-color="white"/>
<stop offset="0.41" stop-color="#FCE2E6"/>
<stop offset="0.43" stop-color="#FCE2E6" stop-opacity="0.97"/>
<stop offset="0.83" stop-color="#FCE2E6" stop-opacity="0.28"/>
<stop offset="1" stop-color="#FCE2E6" stop-opacity="0"/>
</linearGradient>
<linearGradient id="paint3_linear_32_8782" x1="4067.99" y1="5387.87" x2="6826.85" y2="5387.87" gradientUnits="userSpaceOnUse">
<stop stop-color="#FDB5B5" stop-opacity="0"/>
<stop offset="0.07" stop-color="#FDB5B5" stop-opacity="0.03"/>
<stop offset="0.19" stop-color="#FDB5B5" stop-opacity="0.12"/>
<stop offset="0.34" stop-color="#FDB5B5" stop-opacity="0.27"/>
<stop offset="0.51" stop-color="#FDB5B5" stop-opacity="0.48"/>
<stop offset="0.68" stop-color="#FDB5B5" stop-opacity="0.72"/>
</linearGradient>
<linearGradient id="paint4_linear_32_8782" x1="268.568" y1="231.907" x2="268.568" y2="317.84" gradientUnits="userSpaceOnUse">
<stop offset="0.03" stop-color="#DEEBF9"/>
<stop offset="1" stop-color="#DEEBF9" stop-opacity="0"/>
</linearGradient>
<linearGradient id="paint5_linear_32_8782" x1="41.8762" y1="245.585" x2="183.424" y2="245.585" gradientUnits="userSpaceOnUse">
<stop stop-color="#425585" stop-opacity="0"/>
<stop offset="0.07" stop-color="#39487B" stop-opacity="0.34"/>
<stop offset="0.15" stop-color="#303D72" stop-opacity="0.63"/>
<stop offset="0.23" stop-color="#2B356B" stop-opacity="0.83"/>
<stop offset="0.3" stop-color="#273167" stop-opacity="0.96"/>
<stop offset="0.38" stop-color="#262F66"/>
<stop offset="0.43" stop-color="#34457B"/>
<stop offset="0.5" stop-color="#425A8F"/>
<stop offset="0.57" stop-color="#4A679B"/>
<stop offset="0.63" stop-color="#4D6B9F"/>
<stop offset="1" stop-color="#4D6B9F" stop-opacity="0"/>
</linearGradient>
<linearGradient id="paint6_linear_32_8782" x1="96.7598" y1="234.67" x2="63.2563" y2="234.67" gradientUnits="userSpaceOnUse">
<stop offset="0.08" stop-color="#5E8EC8"/>
<stop offset="0.23" stop-color="#5E8EC8"/>
</linearGradient>
<linearGradient id="paint7_linear_32_8782" x1="49.9707" y1="210.624" x2="117.576" y2="210.624" gradientUnits="userSpaceOnUse">
<stop offset="0.28" stop-color="#F6B2B3"/>
<stop offset="0.5" stop-color="#F48F90"/>
</linearGradient>
<linearGradient id="paint8_linear_32_8782" x1="88.6579" y1="230.754" x2="88.6579" y2="255.296" gradientUnits="userSpaceOnUse">
<stop offset="0.29" stop-color="#242F65"/>
<stop offset="0.68" stop-color="#253166"/>
<stop offset="0.81" stop-color="#2A386C"/>
<stop offset="0.91" stop-color="#334375"/>
<stop offset="0.99" stop-color="#405483"/>
<stop offset="1" stop-color="#425785"/>
</linearGradient>
<linearGradient id="paint9_linear_32_8782" x1="36562.4" y1="56278.4" x2="36562.4" y2="53974.9" gradientUnits="userSpaceOnUse">
<stop offset="0.28" stop-color="#F6B2B3"/>
<stop offset="0.5" stop-color="#F48F90"/>
</linearGradient>
<linearGradient id="paint10_linear_32_8782" x1="112.896" y1="242.309" x2="119.725" y2="242.309" gradientUnits="userSpaceOnUse">
<stop offset="0.32" stop-color="#242F65"/>
<stop offset="0.9" stop-color="#242F65"/>
</linearGradient>
<linearGradient id="paint11_linear_32_8782" x1="118.127" y1="237.014" x2="117.911" y2="242.627" gradientUnits="userSpaceOnUse">
<stop offset="0.35" stop-color="#242F65"/>
<stop offset="1" stop-color="#717FA2"/>
</linearGradient>
<linearGradient id="paint12_linear_32_8782" x1="114.436" y1="244.625" x2="114.251" y2="248.444" gradientUnits="userSpaceOnUse">
<stop offset="0.25" stop-color="#425685"/>
<stop offset="1" stop-color="#F6B2B3"/>
</linearGradient>
<linearGradient id="paint13_linear_32_8782" x1="83.5138" y1="244.237" x2="91.2441" y2="244.237" gradientUnits="userSpaceOnUse">
<stop stop-color="#242F65" stop-opacity="0"/>
<stop offset="0.31" stop-color="#242F65" stop-opacity="0.02"/>
<stop offset="0.5" stop-color="#242F65" stop-opacity="0.11"/>
<stop offset="0.64" stop-color="#242F65" stop-opacity="0.25"/>
<stop offset="0.78" stop-color="#242F65" stop-opacity="0.44"/>
<stop offset="0.89" stop-color="#242F65" stop-opacity="0.7"/>
<stop offset="1" stop-color="#242F65"/>
</linearGradient>
<linearGradient id="paint14_linear_32_8782" x1="5713.27" y1="11891.7" x2="5750.43" y2="11891.7" gradientUnits="userSpaceOnUse">
<stop stop-color="#242F65" stop-opacity="0"/>
<stop offset="0.31" stop-color="#242F65" stop-opacity="0.02"/>
<stop offset="0.5" stop-color="#242F65" stop-opacity="0.11"/>
<stop offset="0.64" stop-color="#242F65" stop-opacity="0.25"/>
<stop offset="0.78" stop-color="#242F65" stop-opacity="0.44"/>
<stop offset="0.89" stop-color="#242F65" stop-opacity="0.7"/>
<stop offset="1" stop-color="#242F65"/>
</linearGradient>
<linearGradient id="paint15_linear_32_8782" x1="91.6213" y1="243.687" x2="91.1246" y2="251.461" gradientUnits="userSpaceOnUse">
<stop stop-color="#242F65"/>
<stop offset="0.29" stop-color="#717FA2"/>
<stop offset="0.76" stop-color="#242F65"/>
</linearGradient>
<linearGradient id="paint16_linear_32_8782" x1="91.2242" y1="244.573" x2="90.8663" y2="250.364" gradientUnits="userSpaceOnUse">
<stop offset="0.3" stop-color="#425685"/>
<stop offset="1" stop-color="#242F65"/>
</linearGradient>
<linearGradient id="paint17_linear_32_8782" x1="63.61" y1="230.627" x2="74.7183" y2="230.627" gradientUnits="userSpaceOnUse">
<stop stop-color="#242F65" stop-opacity="0"/>
<stop offset="0.17" stop-color="#242F65" stop-opacity="0.02"/>
<stop offset="0.26" stop-color="#242F65" stop-opacity="0.11"/>
<stop offset="0.34" stop-color="#242F65" stop-opacity="0.25"/>
<stop offset="0.41" stop-color="#242F65" stop-opacity="0.44"/>
<stop offset="0.48" stop-color="#242F65" stop-opacity="0.7"/>
<stop offset="0.53" stop-color="#242F65"/>
<stop offset="1" stop-color="#242F65" stop-opacity="0"/>
</linearGradient>
<linearGradient id="paint18_linear_32_8782" x1="97.8726" y1="209.723" x2="97.8726" y2="236.75" gradientUnits="userSpaceOnUse">
<stop offset="0.02" stop-color="#717FA2"/>
<stop offset="0.27" stop-color="#425685"/>
</linearGradient>
<linearGradient id="paint19_linear_32_8782" x1="54.8322" y1="239.563" x2="54.7121" y2="243.85" gradientUnits="userSpaceOnUse">
<stop offset="0.12" stop-color="#F6B2B3"/>
<stop offset="1" stop-color="#F6B2B3"/>
</linearGradient>
<linearGradient id="paint20_linear_32_8782" x1="27012.2" y1="38575.1" x2="27012.2" y2="37491.9" gradientUnits="userSpaceOnUse">
<stop offset="0.02" stop-color="#717FA2"/>
<stop offset="0.27" stop-color="#425685"/>
</linearGradient>
<linearGradient id="paint21_linear_32_8782" x1="7379.63" y1="10936.9" x2="7457.13" y2="10936.9" gradientUnits="userSpaceOnUse">
<stop offset="0.28" stop-color="#F6B2B3"/>
<stop offset="0.5" stop-color="#F48F90"/>
</linearGradient>
<linearGradient id="paint22_linear_32_8782" x1="57.3913" y1="209.706" x2="57.3913" y2="235.681" gradientUnits="userSpaceOnUse">
<stop offset="0.29" stop-color="#7DA4D2"/>
<stop offset="0.52" stop-color="#5E8EC8"/>
<stop offset="0.88" stop-color="#425685"/>
</linearGradient>
<linearGradient id="paint23_linear_32_8782" x1="62.3655" y1="240.642" x2="69.0102" y2="240.638" gradientUnits="userSpaceOnUse">
<stop offset="0.26" stop-color="#F9D8D8"/>
<stop offset="0.48" stop-color="#F9D5D5"/>
<stop offset="0.63" stop-color="#F8CBCC"/>
<stop offset="0.78" stop-color="#F7BBBC"/>
<stop offset="0.91" stop-color="#F5A5A5"/>
<stop offset="1" stop-color="#F48F90"/>
</linearGradient>
<linearGradient id="paint24_linear_32_8782" x1="41.7293" y1="239.651" x2="45.9275" y2="239.642" gradientUnits="userSpaceOnUse">
<stop stop-color="#F48F90"/>
<stop offset="0.09" stop-color="#F5A5A5"/>
<stop offset="0.22" stop-color="#F7BBBC"/>
<stop offset="0.37" stop-color="#F8CBCC"/>
<stop offset="0.52" stop-color="#F9D5D5"/>
<stop offset="0.74" stop-color="#F9D8D8"/>
</linearGradient>
<linearGradient id="paint25_linear_32_8782" x1="65.7589" y1="222.626" x2="65.7589" y2="236.75" gradientUnits="userSpaceOnUse">
<stop offset="0.04" stop-color="#242F65"/>
<stop offset="1" stop-color="#425685"/>
</linearGradient>
<linearGradient id="paint26_linear_32_8782" x1="17836.6" y1="-940.315" x2="18287.8" y2="-940.315" gradientUnits="userSpaceOnUse">
<stop offset="0.12" stop-color="#F6B2B3"/>
<stop offset="1" stop-color="#F6B2B3"/>
</linearGradient>
<linearGradient id="paint27_linear_32_8782" x1="45.5637" y1="213.05" x2="45.5637" y2="222.213" gradientUnits="userSpaceOnUse">
<stop stop-color="#425685"/>
<stop offset="0.2" stop-color="#425685" stop-opacity="0.98"/>
<stop offset="0.38" stop-color="#425685" stop-opacity="0.9"/>
<stop offset="0.53" stop-color="#425685" stop-opacity="0.77"/>
<stop offset="0.69" stop-color="#425685" stop-opacity="0.58"/>
<stop offset="0.83" stop-color="#425685" stop-opacity="0.34"/>
<stop offset="0.98" stop-color="#425685" stop-opacity="0.06"/>
<stop offset="1" stop-color="#425685" stop-opacity="0"/>
</linearGradient>
<linearGradient id="paint28_linear_32_8782" x1="68.5724" y1="213.429" x2="68.5724" y2="222.727" gradientUnits="userSpaceOnUse">
<stop stop-color="#F48F90"/>
<stop offset="0.11" stop-color="#F6B2B3"/>
<stop offset="0.23" stop-color="#F6B2B3"/>
</linearGradient>
<linearGradient id="paint29_linear_32_8782" x1="41.5301" y1="218.457" x2="46.0008" y2="218.457" gradientUnits="userSpaceOnUse">
<stop offset="0.46" stop-color="#425685"/>
<stop offset="0.81" stop-color="#425685" stop-opacity="0"/>
</linearGradient>
<linearGradient id="paint30_linear_32_8782" x1="388.528" y1="118.037" x2="388.528" y2="214.397" gradientUnits="userSpaceOnUse">
<stop offset="0.22" stop-color="#CBD8E8"/>
<stop offset="0.46" stop-color="#F1EAE3"/>
<stop offset="0.65" stop-color="#FAD4AE"/>
<stop offset="0.81" stop-color="#DDA294"/>
<stop offset="0.93" stop-color="#B78680"/>
</linearGradient>
<linearGradient id="paint31_linear_32_8782" x1="399.85" y1="116.555" x2="399.85" y2="231.242" gradientUnits="userSpaceOnUse">
<stop offset="0.23" stop-color="#FEDADA"/>
<stop offset="0.45" stop-color="#DBE4F1"/>
<stop offset="0.83" stop-color="#DBE4F1"/>
</linearGradient>
<linearGradient id="paint32_linear_32_8782" x1="9236.81" y1="10744.7" x2="9236.81" y2="17545.5" gradientUnits="userSpaceOnUse">
<stop offset="0.23" stop-color="#FEDADA"/>
<stop offset="0.45" stop-color="#DBE4F1"/>
<stop offset="0.83" stop-color="#DBE4F1"/>
</linearGradient>
<linearGradient id="paint33_linear_32_8782" x1="339.731" y1="155.837" x2="339.731" y2="231.099" gradientUnits="userSpaceOnUse">
<stop stop-color="#FDEEF1"/>
<stop offset="0.41" stop-color="#FCE2E6"/>
<stop offset="0.43" stop-color="#FCE2E6" stop-opacity="0.97"/>
<stop offset="0.83" stop-color="#FCE2E6" stop-opacity="0.28"/>
<stop offset="1" stop-color="#FCE2E6" stop-opacity="0"/>
</linearGradient>
<linearGradient id="paint34_linear_32_8782" x1="9404.48" y1="9273.63" x2="9404.48" y2="12999.3" gradientUnits="userSpaceOnUse">
<stop offset="0.69" stop-color="#BFD2E8"/>
<stop offset="0.81" stop-color="#BFD2E8"/>
</linearGradient>
<linearGradient id="paint35_linear_32_8782" x1="370.756" y1="167.662" x2="370.756" y2="174.804" gradientUnits="userSpaceOnUse">
<stop stop-color="#BFD2E8"/>
<stop offset="0.3" stop-color="#C2D2E7"/>
<stop offset="0.54" stop-color="#CCD3E4"/>
<stop offset="0.76" stop-color="#DED5E0"/>
<stop offset="0.97" stop-color="#F5D8D9"/>
<stop offset="1" stop-color="#F9D8D8"/>
</linearGradient>
<linearGradient id="paint36_linear_32_8782" x1="4805.57" y1="-30831.8" x2="4805.57" y2="-30073.5" gradientUnits="userSpaceOnUse">
<stop offset="0.3" stop-color="#425685"/>
<stop offset="1" stop-color="#242F65"/>
</linearGradient>
<linearGradient id="paint37_linear_32_8782" x1="53540.1" y1="-19047.6" x2="79491.9" y2="-19047.6" gradientUnits="userSpaceOnUse">
<stop offset="0.3" stop-color="#425685"/>
<stop offset="1" stop-color="#242F65"/>
</linearGradient>
<linearGradient id="paint38_linear_32_8782" x1="338.323" y1="228.311" x2="497.84" y2="228.311" gradientUnits="userSpaceOnUse">
<stop offset="0.21" stop-color="#F06B6C"/>
<stop offset="1" stop-color="#F6B2B3"/>
</linearGradient>
<linearGradient id="paint39_linear_32_8782" x1="341.434" y1="224.546" x2="442.998" y2="224.546" gradientUnits="userSpaceOnUse">
<stop offset="0.73" stop-color="#425685"/>
<stop offset="0.98" stop-color="#717FA2"/>
</linearGradient>
<linearGradient id="paint40_linear_32_8782" x1="398.94" y1="223.603" x2="402.624" y2="223.603" gradientUnits="userSpaceOnUse">
<stop offset="0.13" stop-color="#425685"/>
<stop offset="0.3" stop-color="#425685"/>
</linearGradient>
<linearGradient id="paint41_linear_32_8782" x1="490.345" y1="238.291" x2="492.932" y2="236.807" gradientUnits="userSpaceOnUse">
<stop offset="0.04" stop-color="#F48F90"/>
<stop offset="0.3" stop-color="#F48F90"/>
</linearGradient>
<linearGradient id="paint42_linear_32_8782" x1="356.314" y1="216.975" x2="367.817" y2="210.32" gradientUnits="userSpaceOnUse">
<stop stop-color="#F48F90"/>
<stop offset="0.17" stop-color="#F49495" stop-opacity="0.85"/>
<stop offset="0.56" stop-color="#F5A2A2" stop-opacity="0.46"/>
<stop offset="1" stop-color="#F6B2B2" stop-opacity="0"/>
</linearGradient>
<linearGradient id="paint43_linear_32_8782" x1="6831.5" y1="-7746.97" x2="6831.5" y2="-7688.03" gradientUnits="userSpaceOnUse">
<stop offset="0.26" stop-color="#F9D8D8"/>
<stop offset="0.48" stop-color="#F9D5D5"/>
<stop offset="0.63" stop-color="#F8CBCC"/>
<stop offset="0.78" stop-color="#F7BBBC"/>
<stop offset="0.91" stop-color="#F5A5A5"/>
<stop offset="1" stop-color="#F48F90"/>
</linearGradient>
<linearGradient id="paint44_linear_32_8782" x1="464.707" y1="208.914" x2="464.707" y2="224.411" gradientUnits="userSpaceOnUse">
<stop offset="0.34" stop-color="#BFD3EA"/>
<stop offset="0.88" stop-color="#5E8FCA"/>
<stop offset="0.89" stop-color="#5D8DC8"/>
<stop offset="0.94" stop-color="#4E6FA4"/>
<stop offset="0.97" stop-color="#455C8D"/>
<stop offset="1" stop-color="#425585"/>
</linearGradient>
<linearGradient id="paint45_linear_32_8782" x1="366.65" y1="226.719" x2="366.65" y2="256.543" gradientUnits="userSpaceOnUse">
<stop offset="0.05" stop-color="#4D6B9F"/>
<stop offset="0.12" stop-color="#252E65"/>
<stop offset="0.62" stop-color="#262F66"/>
<stop offset="0.7" stop-color="#273167" stop-opacity="0.96"/>
<stop offset="0.77" stop-color="#2B356B" stop-opacity="0.83"/>
<stop offset="0.85" stop-color="#303D72" stop-opacity="0.63"/>
<stop offset="0.93" stop-color="#39487B" stop-opacity="0.34"/>
<stop offset="1" stop-color="#425585" stop-opacity="0"/>
</linearGradient>
<linearGradient id="paint46_linear_32_8782" x1="246.084" y1="226.189" x2="339.655" y2="226.189" gradientUnits="userSpaceOnUse">
<stop stop-color="#F48F90"/>
<stop offset="0.63" stop-color="#F06B6C"/>
</linearGradient>
<linearGradient id="paint47_linear_32_8782" x1="291.466" y1="228.85" x2="291.466" y2="237.727" gradientUnits="userSpaceOnUse">
<stop offset="0.18" stop-color="#425685"/>
<stop offset="0.3" stop-color="#425685"/>
</linearGradient>
<linearGradient id="paint48_linear_32_8782" x1="247.028" y1="224.799" x2="333.324" y2="224.799" gradientUnits="userSpaceOnUse">
<stop offset="0.02" stop-color="#717FA2"/>
<stop offset="1" stop-color="#425685"/>
</linearGradient>
<linearGradient id="paint49_linear_32_8782" x1="5064.85" y1="35589.2" x2="5206" y2="35589.2" gradientUnits="userSpaceOnUse">
<stop offset="0.13" stop-color="#425685"/>
<stop offset="0.3" stop-color="#425685"/>
</linearGradient>
<linearGradient id="paint50_linear_32_8782" x1="277.983" y1="389.635" x2="166.714" y2="374.367" gradientUnits="userSpaceOnUse">
<stop offset="0.12" stop-color="#F79B4B"/>
<stop offset="0.14" stop-color="#EC9148"/>
<stop offset="0.21" stop-color="#D67B41"/>
<stop offset="0.29" stop-color="#C56C3D"/>
<stop offset="0.38" stop-color="#BC633A"/>
<stop offset="0.5" stop-color="#B96039"/>
<stop offset="0.58" stop-color="#BD6237"/>
<stop offset="0.65" stop-color="#C8692F"/>
<stop offset="0.68" stop-color="#CE6C2C"/>
<stop offset="0.92" stop-color="#F6C18F"/>
<stop offset="1" stop-color="#F6C18F"/>
</linearGradient>
<linearGradient id="paint51_linear_32_8782" x1="261.301" y1="316.754" x2="261.301" y2="381.58" gradientUnits="userSpaceOnUse">
<stop offset="0.22" stop-color="#FA6B6B"/>
<stop offset="1" stop-color="#FB8989"/>
</linearGradient>
<linearGradient id="paint52_linear_32_8782" x1="264.521" y1="313.909" x2="264.035" y2="338.249" gradientUnits="userSpaceOnUse">
<stop stop-color="#252E65"/>
<stop offset="1" stop-color="#252E65" stop-opacity="0"/>
</linearGradient>
<linearGradient id="paint53_linear_32_8782" x1="178.529" y1="267.845" x2="205.489" y2="240.859" gradientUnits="userSpaceOnUse">
<stop offset="0.17" stop-color="#FB8989"/>
<stop offset="0.86" stop-color="#FDB5B5"/>
</linearGradient>
<linearGradient id="paint54_linear_32_8782" x1="281.548" y1="367.038" x2="173.893" y2="318.157" gradientUnits="userSpaceOnUse">
<stop offset="0.37" stop-color="#EF4849"/>
<stop offset="0.4" stop-color="#F05051"/>
<stop offset="0.56" stop-color="#F27273"/>
<stop offset="0.69" stop-color="#F38788"/>
<stop offset="0.78" stop-color="#F48F90"/>
</linearGradient>
<linearGradient id="paint55_linear_32_8782" x1="188.51" y1="266.111" x2="187.124" y2="268.488" gradientUnits="userSpaceOnUse">
<stop offset="0.5" stop-color="#D7A990"/>
<stop offset="0.76" stop-color="#B96039" stop-opacity="0"/>
</linearGradient>
<linearGradient id="paint56_linear_32_8782" x1="196.73" y1="269.37" x2="177.938" y2="285.727" gradientUnits="userSpaceOnUse">
<stop offset="0.17" stop-color="#FB8989"/>
<stop offset="0.39" stop-color="#FB8989"/>
<stop offset="1" stop-color="#FB8989" stop-opacity="0"/>
</linearGradient>
<linearGradient id="paint57_linear_32_8782" x1="51448.2" y1="2741.35" x2="52922.7" y2="3285.07" gradientUnits="userSpaceOnUse">
<stop offset="0.12" stop-color="#F79B4B"/>
<stop offset="0.14" stop-color="#EC9148"/>
<stop offset="0.21" stop-color="#D67B41"/>
<stop offset="0.29" stop-color="#C56C3D"/>
<stop offset="0.38" stop-color="#BC633A"/>
<stop offset="0.5" stop-color="#B96039"/>
<stop offset="0.58" stop-color="#BD6237"/>
<stop offset="0.65" stop-color="#C8692F"/>
<stop offset="0.68" stop-color="#CE6C2C"/>
<stop offset="0.92" stop-color="#F6C18F"/>
<stop offset="1" stop-color="#F6C18F"/>
</linearGradient>
<linearGradient id="paint58_linear_32_8782" x1="207.058" y1="347.563" x2="274.115" y2="347.563" gradientUnits="userSpaceOnUse">
<stop offset="0.08" stop-color="#FB8989"/>
<stop offset="1" stop-color="#FB8989"/>
</linearGradient>
<linearGradient id="paint59_linear_32_8782" x1="211.847" y1="227.224" x2="176.723" y2="185.323" gradientUnits="userSpaceOnUse">
<stop offset="0.39" stop-color="#FA6B6B"/>
<stop offset="0.48" stop-color="#F48F90"/>
<stop offset="0.9" stop-color="#FBD9D9"/>
</linearGradient>
<linearGradient id="paint60_linear_32_8782" x1="196.401" y1="211.018" x2="181.331" y2="186.732" gradientUnits="userSpaceOnUse">
<stop stop-color="#F16B6C" stop-opacity="0"/>
<stop offset="0.35" stop-color="#F16B6C"/>
<stop offset="1" stop-color="#F16B6C" stop-opacity="0"/>
</linearGradient>
<linearGradient id="paint61_linear_32_8782" x1="265.589" y1="46" x2="265.589" y2="310.208" gradientUnits="userSpaceOnUse">
<stop offset="0.55" stop-color="white"/>
<stop offset="0.77" stop-color="#F1F2F6"/>
</linearGradient>
<linearGradient id="paint62_linear_32_8782" x1="279.401" y1="48.5195" x2="281.931" y2="48.5195" gradientUnits="userSpaceOnUse">
<stop offset="0.15" stop-color="#5273A9"/>
<stop offset="0.33" stop-color="#5273A9"/>
</linearGradient>
<linearGradient id="paint63_linear_32_8782" x1="197.59" y1="75.3362" x2="197.59" y2="86.4115" gradientUnits="userSpaceOnUse">
<stop stop-color="#2B4681"/>
<stop offset="0.07" stop-color="#5273A9"/>
<stop offset="0.91" stop-color="#5273A9"/>
<stop offset="1" stop-color="#2B4681"/>
</linearGradient>
<linearGradient id="paint64_linear_32_8782" x1="490.92" y1="28674.2" x2="490.92" y2="28183.4" gradientUnits="userSpaceOnUse">
<stop stop-color="#2B4681"/>
<stop offset="0.07" stop-color="#5273A9"/>
<stop offset="0.91" stop-color="#5273A9"/>
<stop offset="1" stop-color="#2B4681"/>
</linearGradient>
<linearGradient id="paint65_linear_32_8782" x1="490.92" y1="28076.4" x2="490.92" y2="27585.6" gradientUnits="userSpaceOnUse">
<stop stop-color="#2B4681"/>
<stop offset="0.07" stop-color="#5273A9"/>
<stop offset="0.91" stop-color="#5273A9"/>
<stop offset="1" stop-color="#2B4681"/>
</linearGradient>
<linearGradient id="paint66_linear_32_8782" x1="613.573" y1="45799.2" x2="613.573" y2="44529.9" gradientUnits="userSpaceOnUse">
<stop stop-color="#2B4681"/>
<stop offset="0.07" stop-color="#5273A9"/>
<stop offset="0.91" stop-color="#5273A9"/>
<stop offset="1" stop-color="#2B4681"/>
</linearGradient>
<linearGradient id="paint67_linear_32_8782" x1="168.066" y1="275.341" x2="363.708" y2="79.5057" gradientUnits="userSpaceOnUse">
<stop offset="0.21" stop-color="#5883BB" stop-opacity="0.2"/>
<stop offset="0.68" stop-color="#5E8EC8"/>
<stop offset="0.79" stop-color="#8D99C1"/>
<stop offset="1" stop-color="#F6B2B3"/>
</linearGradient>
<linearGradient id="paint68_linear_32_8782" x1="265.887" y1="312.081" x2="265.887" y2="309.947" gradientUnits="userSpaceOnUse">
<stop offset="0.26" stop-color="#4E6EA5"/>
<stop offset="1" stop-color="#2B4681"/>
</linearGradient>
<linearGradient id="paint69_linear_32_8782" x1="263.359" y1="284.236" x2="372.266" y2="280.966" gradientUnits="userSpaceOnUse">
<stop offset="0.72" stop-color="#FDB5B5"/>
<stop offset="0.81" stop-color="#FDB5B5"/>
</linearGradient>
<linearGradient id="paint70_linear_32_8782" x1="319.354" y1="234.187" x2="382.211" y2="245.602" gradientUnits="userSpaceOnUse">
<stop stop-color="#F16B6C" stop-opacity="0.65"/>
<stop offset="1" stop-color="#F16B6C" stop-opacity="0"/>
</linearGradient>
<linearGradient id="paint71_linear_32_8782" x1="257.583" y1="325.412" x2="364.441" y2="322.204" gradientUnits="userSpaceOnUse">
<stop offset="0.2" stop-color="#FB8989"/>
<stop offset="1" stop-color="#FA6B6B" stop-opacity="0.1"/>
</linearGradient>
<linearGradient id="paint72_linear_32_8782" x1="164.7" y1="107.703" x2="164.7" y2="154.91" gradientUnits="userSpaceOnUse">
<stop stop-color="#FEFEFE" stop-opacity="0.69"/>
<stop offset="1" stop-color="#FCFCFD" stop-opacity="0"/>
</linearGradient>
<linearGradient id="paint73_linear_32_8782" x1="130.677" y1="90.109" x2="130.677" y2="118.753" gradientUnits="userSpaceOnUse">
<stop stop-color="#5E8FCA"/>
<stop offset="0.6" stop-color="#88ADD9"/>
</linearGradient>
<linearGradient id="paint74_linear_32_8782" x1="103.382" y1="108.057" x2="103.382" y2="113.708" gradientUnits="userSpaceOnUse">
<stop offset="0.1" stop-color="#7EA6D6"/>
<stop offset="0.55" stop-color="#5573A6"/>
</linearGradient>
<linearGradient id="paint75_linear_32_8782" x1="132.408" y1="109.152" x2="137.473" y2="109.152" gradientUnits="userSpaceOnUse">
<stop stop-color="#D6ABB9"/>
<stop offset="0.88" stop-color="#F7B3B4"/>
</linearGradient>
<linearGradient id="paint76_linear_32_8782" x1="116.308" y1="89.4184" x2="106.793" y2="89.4184" gradientUnits="userSpaceOnUse">
<stop stop-color="#425486"/>
<stop offset="0.09" stop-color="#475F93"/>
<stop offset="0.29" stop-color="#5175AC"/>
<stop offset="0.51" stop-color="#5884BE"/>
<stop offset="0.74" stop-color="#5D8DC9"/>
<stop offset="1" stop-color="#5E90CC"/>
</linearGradient>
<linearGradient id="paint77_linear_32_8782" x1="131.87" y1="98.4133" x2="133.659" y2="98.4133" gradientUnits="userSpaceOnUse">
<stop offset="0.67" stop-color="#F7B3B4"/>
<stop offset="0.7" stop-color="#D4ABB9"/>
</linearGradient>
<linearGradient id="paint78_linear_32_8782" x1="105.24" y1="108.049" x2="105.24" y2="115.385" gradientUnits="userSpaceOnUse">
<stop stop-color="#5E8FCA"/>
<stop offset="0.86" stop-color="#9BBADF"/>
</linearGradient>
<linearGradient id="paint79_linear_32_8782" x1="103.333" y1="108.697" x2="103.333" y2="112.849" gradientUnits="userSpaceOnUse">
<stop offset="0.42" stop-color="#5573A6"/>
<stop offset="0.55" stop-color="#5573A6"/>
</linearGradient>
<linearGradient id="paint80_linear_32_8782" x1="84.5464" y1="116.462" x2="86.3654" y2="116.462" gradientUnits="userSpaceOnUse">
<stop offset="0.7" stop-color="#D4ABB9"/>
<stop offset="0.85" stop-color="#F7B3B4"/>
</linearGradient>
<linearGradient id="paint81_linear_32_8782" x1="2594.93" y1="7664.79" x2="2596.14" y2="7664.79" gradientUnits="userSpaceOnUse">
<stop offset="0.7" stop-color="#D4ABB9"/>
<stop offset="0.85" stop-color="#F7B3B4"/>
</linearGradient>
<linearGradient id="paint82_linear_32_8782" x1="142.148" y1="102.305" x2="144.114" y2="102.305" gradientUnits="userSpaceOnUse">
<stop offset="0.72" stop-color="#D3AAB9"/>
<stop offset="0.88" stop-color="#F7B3B4"/>
</linearGradient>
<linearGradient id="paint83_linear_32_8782" x1="138.833" y1="98.3293" x2="138.833" y2="104.031" gradientUnits="userSpaceOnUse">
<stop offset="0.45" stop-color="#5573A6"/>
<stop offset="0.9" stop-color="#7EA6D6"/>
</linearGradient>
<linearGradient id="paint84_linear_32_8782" x1="13193.2" y1="6371.39" x2="13193.2" y2="6347.22" gradientUnits="userSpaceOnUse">
<stop offset="0.42" stop-color="#5573A6"/>
<stop offset="0.55" stop-color="#5573A6"/>
</linearGradient>
<linearGradient id="paint85_linear_32_8782" x1="272.311" y1="180.131" x2="272.311" y2="379.58" gradientUnits="userSpaceOnUse">
<stop offset="0.63" stop-color="#F1F2F6" stop-opacity="0"/>
<stop offset="0.68" stop-color="#F1F2F6" stop-opacity="0.1"/>
<stop offset="0.78" stop-color="#F1F2F6" stop-opacity="0.37"/>
<stop offset="0.93" stop-color="#F1F2F6" stop-opacity="0.78"/>
<stop offset="1" stop-color="#F1F2F6"/>
</linearGradient>
</defs>
</svg>
