<svg xmlns="http://www.w3.org/2000/svg" xml:space="preserve" width="1125" height="1125">
  <path d="M0 0h100v100H0z" style="fill:#132968" transform="matrix(.25 0 0 .25 275 50)"/>
  <path d="M0 0h100v100H0z" style="fill:#132968" transform="matrix(.25 0 0 .25 300 50)"/>
  <path d="M0 0h100v100H0z" style="fill:#132968" transform="matrix(.25 0 0 .25 325 50)"/>
  <path d="M0 0h100v100H0z" style="fill:#132968" transform="matrix(.25 0 0 .25 375 50)"/>
  <path d="M0 0h100v100H0z" style="fill:#132968" transform="matrix(.25 0 0 .25 525 50)"/>
  <path d="M0 0h100v100H0z" style="fill:#132968" transform="matrix(.25 0 0 .25 550 50)"/>
  <path d="M0 0h100v100H0z" style="fill:#132968" transform="matrix(.25 0 0 .25 575 50)"/>
  <path d="M0 0h100v100H0z" style="fill:#132968" transform="matrix(.25 0 0 .25 625 50)"/>
  <path d="M0 0h100v100H0z" style="fill:#132968" transform="matrix(.25 0 0 .25 750 50)"/>
  <path d="M0 0h100v100H0z" style="fill:#132968" transform="matrix(.25 0 0 .25 775 50)"/>
  <path d="M0 0h100v100H0z" style="fill:#132968" transform="matrix(.25 0 0 .25 800 50)"/>
  <path d="M0 0h100v100H0z" style="fill:#132968" transform="matrix(.25 0 0 .25 850 50)"/>
  <path d="M0 0h100v100H0z" style="fill:#132968" transform="matrix(.25 0 0 .25 300 75)"/>
  <path d="M0 0h100v100H0z" style="fill:#132968" transform="matrix(.25 0 0 .25 325 75)"/>
  <path d="M0 0h100v100H0z" style="fill:#132968" transform="matrix(.25 0 0 .25 350 75)"/>
  <path d="M0 0h100v100H0z" style="fill:#132968" transform="matrix(.25 0 0 .25 400 75)"/>
  <path d="M0 0h100v100H0z" style="fill:#132968" transform="matrix(.25 0 0 .25 450 75)"/>
  <path d="M0 0h100v100H0z" style="fill:#132968" transform="matrix(.25 0 0 .25 500 75)"/>
  <path d="M0 0h100v100H0z" style="fill:#132968" transform="matrix(.25 0 0 .25 550 75)"/>
  <path d="M0 0h100v100H0z" style="fill:#132968" transform="matrix(.25 0 0 .25 675 75)"/>
  <path d="M0 0h100v100H0z" style="fill:#132968" transform="matrix(.25 0 0 .25 725 75)"/>
  <path d="M0 0h100v100H0z" style="fill:#132968" transform="matrix(.25 0 0 .25 775 75)"/>
  <path d="M0 0h100v100H0z" style="fill:#132968" transform="matrix(.25 0 0 .25 250 100)"/>
  <path d="M0 0h100v100H0z" style="fill:#132968" transform="matrix(.25 0 0 .25 275 100)"/>
  <path d="M0 0h100v100H0z" style="fill:#132968" transform="matrix(.25 0 0 .25 300 100)"/>
  <path d="M0 0h100v100H0z" style="fill:#132968" transform="matrix(.25 0 0 .25 325 100)"/>
  <path d="M0 0h100v100H0z" style="fill:#132968" transform="matrix(.25 0 0 .25 400 100)"/>
  <path d="M0 0h100v100H0z" style="fill:#132968" transform="matrix(.25 0 0 .25 425 100)"/>
  <path d="M0 0h100v100H0z" style="fill:#132968" transform="matrix(.25 0 0 .25 575 100)"/>
  <path d="M0 0h100v100H0z" style="fill:#132968" transform="matrix(.25 0 0 .25 650 100)"/>
  <path d="M0 0h100v100H0z" style="fill:#132968" transform="matrix(.25 0 0 .25 700 100)"/>
  <path d="M0 0h100v100H0z" style="fill:#132968" transform="matrix(.25 0 0 .25 750 100)"/>
  <path d="M0 0h100v100H0z" style="fill:#132968" transform="matrix(.25 0 0 .25 825 100)"/>
  <path d="M0 0h100v100H0z" style="fill:#132968" transform="matrix(.25 0 0 .25 250 125)"/>
  <path d="M0 0h100v100H0z" style="fill:#132968" transform="matrix(.25 0 0 .25 275 125)"/>
  <path d="M0 0h100v100H0z" style="fill:#132968" transform="matrix(.25 0 0 .25 375 125)"/>
  <path d="M0 0h100v100H0z" style="fill:#132968" transform="matrix(.25 0 0 .25 450 125)"/>
  <path d="M0 0h100v100H0z" style="fill:#132968" transform="matrix(.25 0 0 .25 500 125)"/>
  <path d="M0 0h100v100H0z" style="fill:#132968" transform="matrix(.25 0 0 .25 550 125)"/>
  <path d="M0 0h100v100H0z" style="fill:#132968" transform="matrix(.25 0 0 .25 575 125)"/>
  <path d="M0 0h100v100H0z" style="fill:#132968" transform="matrix(.25 0 0 .25 600 125)"/>
  <path d="M0 0h100v100H0z" style="fill:#132968" transform="matrix(.25 0 0 .25 675 125)"/>
  <path d="M0 0h100v100H0z" style="fill:#132968" transform="matrix(.25 0 0 .25 700 125)"/>
  <path d="M0 0h100v100H0z" style="fill:#132968" transform="matrix(.25 0 0 .25 725 125)"/>
  <path d="M0 0h100v100H0z" style="fill:#132968" transform="matrix(.25 0 0 .25 750 125)"/>
  <path d="M0 0h100v100H0z" style="fill:#132968" transform="matrix(.25 0 0 .25 775 125)"/>
  <path d="M0 0h100v100H0z" style="fill:#132968" transform="matrix(.25 0 0 .25 250 150)"/>
  <path d="M0 0h100v100H0z" style="fill:#132968" transform="matrix(.25 0 0 .25 325 150)"/>
  <path d="M0 0h100v100H0z" style="fill:#132968" transform="matrix(.25 0 0 .25 425 150)"/>
  <path d="M0 0h100v100H0z" style="fill:#132968" transform="matrix(.25 0 0 .25 450 150)"/>
  <path d="M0 0h100v100H0z" style="fill:#132968" transform="matrix(.25 0 0 .25 525 150)"/>
  <path d="M0 0h100v100H0z" style="fill:#132968" transform="matrix(.25 0 0 .25 600 150)"/>
  <path d="M0 0h100v100H0z" style="fill:#132968" transform="matrix(.25 0 0 .25 800 150)"/>
  <path d="M0 0h100v100H0z" style="fill:#132968" transform="matrix(.25 0 0 .25 825 150)"/>
  <path d="M0 0h100v100H0z" style="fill:#132968" transform="matrix(.25 0 0 .25 850 150)"/>
  <path d="M0 0h100v100H0z" style="fill:#132968" transform="matrix(.25 0 0 .25 250 175)"/>
  <path d="M0 0h100v100H0z" style="fill:#132968" transform="matrix(.25 0 0 .25 300 175)"/>
  <path d="M0 0h100v100H0z" style="fill:#132968" transform="matrix(.25 0 0 .25 325 175)"/>
  <path d="M0 0h100v100H0z" style="fill:#132968" transform="matrix(.25 0 0 .25 350 175)"/>
  <path d="M0 0h100v100H0z" style="fill:#132968" transform="matrix(.25 0 0 .25 375 175)"/>
  <path d="M0 0h100v100H0z" style="fill:#132968" transform="matrix(.25 0 0 .25 400 175)"/>
  <path d="M0 0h100v100H0z" style="fill:#132968" transform="matrix(.25 0 0 .25 500 175)"/>
  <path d="M0 0h100v100H0z" style="fill:#132968" transform="matrix(.25 0 0 .25 550 175)"/>
  <path d="M0 0h100v100H0z" style="fill:#132968" transform="matrix(.25 0 0 .25 600 175)"/>
  <path d="M0 0h100v100H0z" style="fill:#132968" transform="matrix(.25 0 0 .25 650 175)"/>
  <path d="M0 0h100v100H0z" style="fill:#132968" transform="matrix(.25 0 0 .25 700 175)"/>
  <path d="M0 0h100v100H0z" style="fill:#132968" transform="matrix(.25 0 0 .25 725 175)"/>
  <path d="M0 0h100v100H0z" style="fill:#132968" transform="matrix(.25 0 0 .25 750 175)"/>
  <path d="M0 0h100v100H0z" style="fill:#132968" transform="matrix(.25 0 0 .25 800 175)"/>
  <path d="M0 0h100v100H0z" style="fill:#132968" transform="matrix(.25 0 0 .25 250 200)"/>
  <path d="M0 0h100v100H0z" style="fill:#132968" transform="matrix(.25 0 0 .25 300 200)"/>
  <path d="M0 0h100v100H0z" style="fill:#132968" transform="matrix(.25 0 0 .25 350 200)"/>
  <path d="M0 0h100v100H0z" style="fill:#132968" transform="matrix(.25 0 0 .25 400 200)"/>
  <path d="M0 0h100v100H0z" style="fill:#132968" transform="matrix(.25 0 0 .25 450 200)"/>
  <path d="M0 0h100v100H0z" style="fill:#132968" transform="matrix(.25 0 0 .25 500 200)"/>
  <path d="M0 0h100v100H0z" style="fill:#132968" transform="matrix(.25 0 0 .25 550 200)"/>
  <path d="M0 0h100v100H0z" style="fill:#132968" transform="matrix(.25 0 0 .25 600 200)"/>
  <path d="M0 0h100v100H0z" style="fill:#132968" transform="matrix(.25 0 0 .25 650 200)"/>
  <path d="M0 0h100v100H0z" style="fill:#132968" transform="matrix(.25 0 0 .25 700 200)"/>
  <path d="M0 0h100v100H0z" style="fill:#132968" transform="matrix(.25 0 0 .25 750 200)"/>
  <path d="M0 0h100v100H0z" style="fill:#132968" transform="matrix(.25 0 0 .25 800 200)"/>
  <path d="M0 0h100v100H0z" style="fill:#132968" transform="matrix(.25 0 0 .25 850 200)"/>
  <path d="M0 0h100v100H0z" style="fill:#132968" transform="matrix(.25 0 0 .25 250 225)"/>
  <path d="M0 0h100v100H0z" style="fill:#132968" transform="matrix(.25 0 0 .25 275 225)"/>
  <path d="M0 0h100v100H0z" style="fill:#132968" transform="matrix(.25 0 0 .25 325 225)"/>
  <path d="M0 0h100v100H0z" style="fill:#132968" transform="matrix(.25 0 0 .25 400 225)"/>
  <path d="M0 0h100v100H0z" style="fill:#132968" transform="matrix(.25 0 0 .25 425 225)"/>
  <path d="M0 0h100v100H0z" style="fill:#132968" transform="matrix(.25 0 0 .25 450 225)"/>
  <path d="M0 0h100v100H0z" style="fill:#132968" transform="matrix(.25 0 0 .25 525 225)"/>
  <path d="M0 0h100v100H0z" style="fill:#132968" transform="matrix(.25 0 0 .25 575 225)"/>
  <path d="M0 0h100v100H0z" style="fill:#132968" transform="matrix(.25 0 0 .25 650 225)"/>
  <path d="M0 0h100v100H0z" style="fill:#132968" transform="matrix(.25 0 0 .25 725 225)"/>
  <path d="M0 0h100v100H0z" style="fill:#132968" transform="matrix(.25 0 0 .25 50 250)"/>
  <path d="M0 0h100v100H0z" style="fill:#132968" transform="matrix(.25 0 0 .25 100 250)"/>
  <path d="M0 0h100v100H0z" style="fill:#132968" transform="matrix(.25 0 0 .25 125 250)"/>
  <path d="M0 0h100v100H0z" style="fill:#132968" transform="matrix(.25 0 0 .25 150 250)"/>
  <path d="M0 0h100v100H0z" style="fill:#132968" transform="matrix(.25 0 0 .25 175 250)"/>
  <path d="M0 0h100v100H0z" style="fill:#132968" transform="matrix(.25 0 0 .25 200 250)"/>
  <path d="M0 0h100v100H0z" style="fill:#132968" transform="matrix(.25 0 0 .25 300 250)"/>
  <path d="M0 0h100v100H0z" style="fill:#132968" transform="matrix(.25 0 0 .25 350 250)"/>
  <path d="M0 0h100v100H0z" style="fill:#132968" transform="matrix(.25 0 0 .25 375 250)"/>
  <path d="M0 0h100v100H0z" style="fill:#132968" transform="matrix(.25 0 0 .25 425 250)"/>
  <path d="M0 0h100v100H0z" style="fill:#132968" transform="matrix(.25 0 0 .25 475 250)"/>
  <path d="M0 0h100v100H0z" style="fill:#132968" transform="matrix(.25 0 0 .25 500 250)"/>
  <path d="M0 0h100v100H0z" style="fill:#132968" transform="matrix(.25 0 0 .25 525 250)"/>
  <path d="M0 0h100v100H0z" style="fill:#132968" transform="matrix(.25 0 0 .25 550 250)"/>
  <path d="M0 0h100v100H0z" style="fill:#132968" transform="matrix(.25 0 0 .25 600 250)"/>
  <path d="M0 0h100v100H0z" style="fill:#132968" transform="matrix(.25 0 0 .25 650 250)"/>
  <path d="M0 0h100v100H0z" style="fill:#132968" transform="matrix(.25 0 0 .25 675 250)"/>
  <path d="M0 0h100v100H0z" style="fill:#132968" transform="matrix(.25 0 0 .25 700 250)"/>
  <path d="M0 0h100v100H0z" style="fill:#132968" transform="matrix(.25 0 0 .25 775 250)"/>
  <path d="M0 0h100v100H0z" style="fill:#132968" transform="matrix(.25 0 0 .25 825 250)"/>
  <path d="M0 0h100v100H0z" style="fill:#132968" transform="matrix(.25 0 0 .25 900 250)"/>
  <path d="M0 0h100v100H0z" style="fill:#132968" transform="matrix(.25 0 0 .25 925 250)"/>
  <path d="M0 0h100v100H0z" style="fill:#132968" transform="matrix(.25 0 0 .25 950 250)"/>
  <path d="M0 0h100v100H0z" style="fill:#132968" transform="matrix(.25 0 0 .25 975 250)"/>
  <path d="M0 0h100v100H0z" style="fill:#132968" transform="matrix(.25 0 0 .25 1000 250)"/>
  <path d="M0 0h100v100H0z" style="fill:#132968" transform="matrix(.25 0 0 .25 125 275)"/>
  <path d="M0 0h100v100H0z" style="fill:#132968" transform="matrix(.25 0 0 .25 225 275)"/>
  <path d="M0 0h100v100H0z" style="fill:#132968" transform="matrix(.25 0 0 .25 250 275)"/>
  <path d="M0 0h100v100H0z" style="fill:#132968" transform="matrix(.25 0 0 .25 275 275)"/>
  <path d="M0 0h100v100H0z" style="fill:#132968" transform="matrix(.25 0 0 .25 300 275)"/>
  <path d="M0 0h100v100H0z" style="fill:#132968" transform="matrix(.25 0 0 .25 325 275)"/>
  <path d="M0 0h100v100H0z" style="fill:#132968" transform="matrix(.25 0 0 .25 350 275)"/>
  <path d="M0 0h100v100H0z" style="fill:#132968" transform="matrix(.25 0 0 .25 425 275)"/>
  <path d="M0 0h100v100H0z" style="fill:#132968" transform="matrix(.25 0 0 .25 450 275)"/>
  <path d="M0 0h100v100H0z" style="fill:#132968" transform="matrix(.25 0 0 .25 475 275)"/>
  <path d="M0 0h100v100H0z" style="fill:#132968" transform="matrix(.25 0 0 .25 525 275)"/>
  <path d="M0 0h100v100H0z" style="fill:#132968" transform="matrix(.25 0 0 .25 625 275)"/>
  <path d="M0 0h100v100H0z" style="fill:#132968" transform="matrix(.25 0 0 .25 650 275)"/>
  <path d="M0 0h100v100H0z" style="fill:#132968" transform="matrix(.25 0 0 .25 675 275)"/>
  <path d="M0 0h100v100H0z" style="fill:#132968" transform="matrix(.25 0 0 .25 750 275)"/>
  <path d="M0 0h100v100H0z" style="fill:#132968" transform="matrix(.25 0 0 .25 775 275)"/>
  <path d="M0 0h100v100H0z" style="fill:#132968" transform="matrix(.25 0 0 .25 825 275)"/>
  <path d="M0 0h100v100H0z" style="fill:#132968" transform="matrix(.25 0 0 .25 850 275)"/>
  <path d="M0 0h100v100H0z" style="fill:#132968" transform="matrix(.25 0 0 .25 900 275)"/>
  <path d="M0 0h100v100H0z" style="fill:#132968" transform="matrix(.25 0 0 .25 950 275)"/>
  <path d="M0 0h100v100H0z" style="fill:#132968" transform="matrix(.25 0 0 .25 1000 275)"/>
  <path d="M0 0h100v100H0z" style="fill:#132968" transform="matrix(.25 0 0 .25 1025 275)"/>
  <path d="M0 0h100v100H0z" style="fill:#132968" transform="matrix(.25 0 0 .25 1050 275)"/>
  <path d="M0 0h100v100H0z" style="fill:#132968" transform="matrix(.25 0 0 .25 50 300)"/>
  <path d="M0 0h100v100H0z" style="fill:#132968" transform="matrix(.25 0 0 .25 100 300)"/>
  <path d="M0 0h100v100H0z" style="fill:#132968" transform="matrix(.25 0 0 .25 125 300)"/>
  <path d="M0 0h100v100H0z" style="fill:#132968" transform="matrix(.25 0 0 .25 175 300)"/>
  <path d="M0 0h100v100H0z" style="fill:#132968" transform="matrix(.25 0 0 .25 200 300)"/>
  <path d="M0 0h100v100H0z" style="fill:#132968" transform="matrix(.25 0 0 .25 225 300)"/>
  <path d="M0 0h100v100H0z" style="fill:#132968" transform="matrix(.25 0 0 .25 250 300)"/>
  <path d="M0 0h100v100H0z" style="fill:#132968" transform="matrix(.25 0 0 .25 275 300)"/>
  <path d="M0 0h100v100H0z" style="fill:#132968" transform="matrix(.25 0 0 .25 300 300)"/>
  <path d="M0 0h100v100H0z" style="fill:#132968" transform="matrix(.25 0 0 .25 325 300)"/>
  <path d="M0 0h100v100H0z" style="fill:#132968" transform="matrix(.25 0 0 .25 450 300)"/>
  <path d="M0 0h100v100H0z" style="fill:#132968" transform="matrix(.25 0 0 .25 550 300)"/>
  <path d="M0 0h100v100H0z" style="fill:#132968" transform="matrix(.25 0 0 .25 600 300)"/>
  <path d="M0 0h100v100H0z" style="fill:#132968" transform="matrix(.25 0 0 .25 650 300)"/>
  <path d="M0 0h100v100H0z" style="fill:#132968" transform="matrix(.25 0 0 .25 675 300)"/>
  <path d="M0 0h100v100H0z" style="fill:#132968" transform="matrix(.25 0 0 .25 700 300)"/>
  <path d="M0 0h100v100H0z" style="fill:#132968" transform="matrix(.25 0 0 .25 725 300)"/>
  <path d="M0 0h100v100H0z" style="fill:#132968" transform="matrix(.25 0 0 .25 750 300)"/>
  <path d="M0 0h100v100H0z" style="fill:#132968" transform="matrix(.25 0 0 .25 850 300)"/>
  <path d="M0 0h100v100H0z" style="fill:#132968" transform="matrix(.25 0 0 .25 900 300)"/>
  <path d="M0 0h100v100H0z" style="fill:#132968" transform="matrix(.25 0 0 .25 925 300)"/>
  <path d="M0 0h100v100H0z" style="fill:#132968" transform="matrix(.25 0 0 .25 950 300)"/>
  <path d="M0 0h100v100H0z" style="fill:#132968" transform="matrix(.25 0 0 .25 50 325)"/>
  <path d="M0 0h100v100H0z" style="fill:#132968" transform="matrix(.25 0 0 .25 75 325)"/>
  <path d="M0 0h100v100H0z" style="fill:#132968" transform="matrix(.25 0 0 .25 100 325)"/>
  <path d="M0 0h100v100H0z" style="fill:#132968" transform="matrix(.25 0 0 .25 175 325)"/>
  <path d="M0 0h100v100H0z" style="fill:#132968" transform="matrix(.25 0 0 .25 300 325)"/>
  <path d="M0 0h100v100H0z" style="fill:#132968" transform="matrix(.25 0 0 .25 325 325)"/>
  <path d="M0 0h100v100H0z" style="fill:#132968" transform="matrix(.25 0 0 .25 375 325)"/>
  <path d="M0 0h100v100H0z" style="fill:#132968" transform="matrix(.25 0 0 .25 525 325)"/>
  <path d="M0 0h100v100H0z" style="fill:#132968" transform="matrix(.25 0 0 .25 550 325)"/>
  <path d="M0 0h100v100H0z" style="fill:#132968" transform="matrix(.25 0 0 .25 575 325)"/>
  <path d="M0 0h100v100H0z" style="fill:#132968" transform="matrix(.25 0 0 .25 600 325)"/>
  <path d="M0 0h100v100H0z" style="fill:#132968" transform="matrix(.25 0 0 .25 700 325)"/>
  <path d="M0 0h100v100H0z" style="fill:#132968" transform="matrix(.25 0 0 .25 725 325)"/>
  <path d="M0 0h100v100H0z" style="fill:#132968" transform="matrix(.25 0 0 .25 825 325)"/>
  <path d="M0 0h100v100H0z" style="fill:#132968" transform="matrix(.25 0 0 .25 850 325)"/>
  <path d="M0 0h100v100H0z" style="fill:#132968" transform="matrix(.25 0 0 .25 900 325)"/>
  <path d="M0 0h100v100H0z" style="fill:#132968" transform="matrix(.25 0 0 .25 925 325)"/>
  <path d="M0 0h100v100H0z" style="fill:#132968" transform="matrix(.25 0 0 .25 950 325)"/>
  <path d="M0 0h100v100H0z" style="fill:#132968" transform="matrix(.25 0 0 .25 975 325)"/>
  <path d="M0 0h100v100H0z" style="fill:#132968" transform="matrix(.25 0 0 .25 1025 325)"/>
  <path d="M0 0h100v100H0z" style="fill:#132968" transform="matrix(.25 0 0 .25 75 350)"/>
  <path d="M0 0h100v100H0z" style="fill:#132968" transform="matrix(.25 0 0 .25 200 350)"/>
  <path d="M0 0h100v100H0z" style="fill:#132968" transform="matrix(.25 0 0 .25 250 350)"/>
  <path d="M0 0h100v100H0z" style="fill:#132968" transform="matrix(.25 0 0 .25 375 350)"/>
  <path d="M0 0h100v100H0z" style="fill:#132968" transform="matrix(.25 0 0 .25 475 350)"/>
  <path d="M0 0h100v100H0z" style="fill:#132968" transform="matrix(.25 0 0 .25 525 350)"/>
  <path d="M0 0h100v100H0z" style="fill:#132968" transform="matrix(.25 0 0 .25 600 350)"/>
  <path d="M0 0h100v100H0z" style="fill:#132968" transform="matrix(.25 0 0 .25 650 350)"/>
  <path d="M0 0h100v100H0z" style="fill:#132968" transform="matrix(.25 0 0 .25 675 350)"/>
  <path d="M0 0h100v100H0z" style="fill:#132968" transform="matrix(.25 0 0 .25 700 350)"/>
  <path d="M0 0h100v100H0z" style="fill:#132968" transform="matrix(.25 0 0 .25 725 350)"/>
  <path d="M0 0h100v100H0z" style="fill:#132968" transform="matrix(.25 0 0 .25 775 350)"/>
  <path d="M0 0h100v100H0z" style="fill:#132968" transform="matrix(.25 0 0 .25 800 350)"/>
  <path d="M0 0h100v100H0z" style="fill:#132968" transform="matrix(.25 0 0 .25 825 350)"/>
  <path d="M0 0h100v100H0z" style="fill:#132968" transform="matrix(.25 0 0 .25 925 350)"/>
  <path d="M0 0h100v100H0z" style="fill:#132968" transform="matrix(.25 0 0 .25 950 350)"/>
  <path d="M0 0h100v100H0z" style="fill:#132968" transform="matrix(.25 0 0 .25 975 350)"/>
  <path d="M0 0h100v100H0z" style="fill:#132968" transform="matrix(.25 0 0 .25 1000 350)"/>
  <path d="M0 0h100v100H0z" style="fill:#132968" transform="matrix(.25 0 0 .25 1025 350)"/>
  <path d="M0 0h100v100H0z" style="fill:#132968" transform="matrix(.25 0 0 .25 75 375)"/>
  <path d="M0 0h100v100H0z" style="fill:#132968" transform="matrix(.25 0 0 .25 100 375)"/>
  <path d="M0 0h100v100H0z" style="fill:#132968" transform="matrix(.25 0 0 .25 150 375)"/>
  <path d="M0 0h100v100H0z" style="fill:#132968" transform="matrix(.25 0 0 .25 225 375)"/>
  <path d="M0 0h100v100H0z" style="fill:#132968" transform="matrix(.25 0 0 .25 250 375)"/>
  <path d="M0 0h100v100H0z" style="fill:#132968" transform="matrix(.25 0 0 .25 275 375)"/>
  <path d="M0 0h100v100H0z" style="fill:#132968" transform="matrix(.25 0 0 .25 300 375)"/>
  <path d="M0 0h100v100H0z" style="fill:#132968" transform="matrix(.25 0 0 .25 350 375)"/>
  <path d="M0 0h100v100H0z" style="fill:#132968" transform="matrix(.25 0 0 .25 375 375)"/>
  <path d="M0 0h100v100H0z" style="fill:#132968" transform="matrix(.25 0 0 .25 400 375)"/>
  <path d="M0 0h100v100H0z" style="fill:#132968" transform="matrix(.25 0 0 .25 500 375)"/>
  <path d="M0 0h100v100H0z" style="fill:#132968" transform="matrix(.25 0 0 .25 550 375)"/>
  <path d="M0 0h100v100H0z" style="fill:#132968" transform="matrix(.25 0 0 .25 625 375)"/>
  <path d="M0 0h100v100H0z" style="fill:#132968" transform="matrix(.25 0 0 .25 750 375)"/>
  <path d="M0 0h100v100H0z" style="fill:#132968" transform="matrix(.25 0 0 .25 825 375)"/>
  <path d="M0 0h100v100H0z" style="fill:#132968" transform="matrix(.25 0 0 .25 850 375)"/>
  <path d="M0 0h100v100H0z" style="fill:#132968" transform="matrix(.25 0 0 .25 900 375)"/>
  <path d="M0 0h100v100H0z" style="fill:#132968" transform="matrix(.25 0 0 .25 925 375)"/>
  <path d="M0 0h100v100H0z" style="fill:#132968" transform="matrix(.25 0 0 .25 950 375)"/>
  <path d="M0 0h100v100H0z" style="fill:#132968" transform="matrix(.25 0 0 .25 1000 375)"/>
  <path d="M0 0h100v100H0z" style="fill:#132968" transform="matrix(.25 0 0 .25 1050 375)"/>
  <path d="M0 0h100v100H0z" style="fill:#132968" transform="matrix(.25 0 0 .25 50 400)"/>
  <path d="M0 0h100v100H0z" style="fill:#132968" transform="matrix(.25 0 0 .25 200 400)"/>
  <path d="M0 0h100v100H0z" style="fill:#132968" transform="matrix(.25 0 0 .25 250 400)"/>
  <path d="M0 0h100v100H0z" style="fill:#132968" transform="matrix(.25 0 0 .25 275 400)"/>
  <path d="M0 0h100v100H0z" style="fill:#132968" transform="matrix(.25 0 0 .25 325 400)"/>
  <path d="M0 0h100v100H0z" style="fill:#132968" transform="matrix(.25 0 0 .25 500 400)"/>
  <path d="M0 0h100v100H0z" style="fill:#132968" transform="matrix(.25 0 0 .25 525 400)"/>
  <path d="M0 0h100v100H0z" style="fill:#132968" transform="matrix(.25 0 0 .25 575 400)"/>
  <path d="M0 0h100v100H0z" style="fill:#132968" transform="matrix(.25 0 0 .25 675 400)"/>
  <path d="M0 0h100v100H0z" style="fill:#132968" transform="matrix(.25 0 0 .25 725 400)"/>
  <path d="M0 0h100v100H0z" style="fill:#132968" transform="matrix(.25 0 0 .25 750 400)"/>
  <path d="M0 0h100v100H0z" style="fill:#132968" transform="matrix(.25 0 0 .25 775 400)"/>
  <path d="M0 0h100v100H0z" style="fill:#132968" transform="matrix(.25 0 0 .25 850 400)"/>
  <path d="M0 0h100v100H0z" style="fill:#132968" transform="matrix(.25 0 0 .25 875 400)"/>
  <path d="M0 0h100v100H0z" style="fill:#132968" transform="matrix(.25 0 0 .25 1000 400)"/>
  <path d="M0 0h100v100H0z" style="fill:#132968" transform="matrix(.25 0 0 .25 50 425)"/>
  <path d="M0 0h100v100H0z" style="fill:#132968" transform="matrix(.25 0 0 .25 125 425)"/>
  <path d="M0 0h100v100H0z" style="fill:#132968" transform="matrix(.25 0 0 .25 150 425)"/>
  <path d="M0 0h100v100H0z" style="fill:#132968" transform="matrix(.25 0 0 .25 175 425)"/>
  <path d="M0 0h100v100H0z" style="fill:#132968" transform="matrix(.25 0 0 .25 225 425)"/>
  <path d="M0 0h100v100H0z" style="fill:#132968" transform="matrix(.25 0 0 .25 250 425)"/>
  <path d="M0 0h100v100H0z" style="fill:#132968" transform="matrix(.25 0 0 .25 300 425)"/>
  <path d="M0 0h100v100H0z" style="fill:#132968" transform="matrix(.25 0 0 .25 350 425)"/>
  <path d="M0 0h100v100H0z" style="fill:#132968" transform="matrix(.25 0 0 .25 375 425)"/>
  <path d="M0 0h100v100H0z" style="fill:#132968" transform="matrix(.25 0 0 .25 400 425)"/>
  <path d="M0 0h100v100H0z" style="fill:#132968" transform="matrix(.25 0 0 .25 425 425)"/>
  <path d="M0 0h100v100H0z" style="fill:#132968" transform="matrix(.25 0 0 .25 450 425)"/>
  <path d="M0 0h100v100H0z" style="fill:#132968" transform="matrix(.25 0 0 .25 500 425)"/>
  <path d="M0 0h100v100H0z" style="fill:#132968" transform="matrix(.25 0 0 .25 525 425)"/>
  <path d="M0 0h100v100H0z" style="fill:#132968" transform="matrix(.25 0 0 .25 550 425)"/>
  <path d="M0 0h100v100H0z" style="fill:#132968" transform="matrix(.25 0 0 .25 575 425)"/>
  <path d="M0 0h100v100H0z" style="fill:#132968" transform="matrix(.25 0 0 .25 600 425)"/>
  <path d="M0 0h100v100H0z" style="fill:#132968" transform="matrix(.25 0 0 .25 650 425)"/>
  <path d="M0 0h100v100H0z" style="fill:#132968" transform="matrix(.25 0 0 .25 700 425)"/>
  <path d="M0 0h100v100H0z" style="fill:#132968" transform="matrix(.25 0 0 .25 800 425)"/>
  <path d="M0 0h100v100H0z" style="fill:#132968" transform="matrix(.25 0 0 .25 825 425)"/>
  <path d="M0 0h100v100H0z" style="fill:#132968" transform="matrix(.25 0 0 .25 900 425)"/>
  <path d="M0 0h100v100H0z" style="fill:#132968" transform="matrix(.25 0 0 .25 950 425)"/>
  <path d="M0 0h100v100H0z" style="fill:#132968" transform="matrix(.25 0 0 .25 975 425)"/>
  <path d="M0 0h100v100H0z" style="fill:#132968" transform="matrix(.25 0 0 .25 75 450)"/>
  <path d="M0 0h100v100H0z" style="fill:#132968" transform="matrix(.25 0 0 .25 200 450)"/>
  <path d="M0 0h100v100H0z" style="fill:#132968" transform="matrix(.25 0 0 .25 250 450)"/>
  <path d="M0 0h100v100H0z" style="fill:#132968" transform="matrix(.25 0 0 .25 350 450)"/>
  <path d="M0 0h100v100H0z" style="fill:#132968" transform="matrix(.25 0 0 .25 400 450)"/>
  <path d="M0 0h100v100H0z" style="fill:#132968" transform="matrix(.25 0 0 .25 425 450)"/>
  <path d="M0 0h100v100H0z" style="fill:#132968" transform="matrix(.25 0 0 .25 450 450)"/>
  <path d="M0 0h100v100H0z" style="fill:#132968" transform="matrix(.25 0 0 .25 475 450)"/>
  <path d="M0 0h100v100H0z" style="fill:#132968" transform="matrix(.25 0 0 .25 525 450)"/>
  <path d="M0 0h100v100H0z" style="fill:#132968" transform="matrix(.25 0 0 .25 600 450)"/>
  <path d="M0 0h100v100H0z" style="fill:#132968" transform="matrix(.25 0 0 .25 650 450)"/>
  <path d="M0 0h100v100H0z" style="fill:#132968" transform="matrix(.25 0 0 .25 675 450)"/>
  <path d="M0 0h100v100H0z" style="fill:#132968" transform="matrix(.25 0 0 .25 700 450)"/>
  <path d="M0 0h100v100H0z" style="fill:#132968" transform="matrix(.25 0 0 .25 725 450)"/>
  <path d="M0 0h100v100H0z" style="fill:#132968" transform="matrix(.25 0 0 .25 775 450)"/>
  <path d="M0 0h100v100H0z" style="fill:#132968" transform="matrix(.25 0 0 .25 800 450)"/>
  <path d="M0 0h100v100H0z" style="fill:#132968" transform="matrix(.25 0 0 .25 850 450)"/>
  <path d="M0 0h100v100H0z" style="fill:#132968" transform="matrix(.25 0 0 .25 875 450)"/>
  <path d="M0 0h100v100H0z" style="fill:#132968" transform="matrix(.25 0 0 .25 925 450)"/>
  <path d="M0 0h100v100H0z" style="fill:#132968" transform="matrix(.25 0 0 .25 1000 450)"/>
  <path d="M0 0h100v100H0z" style="fill:#132968" transform="matrix(.25 0 0 .25 75 475)"/>
  <path d="M0 0h100v100H0z" style="fill:#132968" transform="matrix(.25 0 0 .25 100 475)"/>
  <path d="M0 0h100v100H0z" style="fill:#132968" transform="matrix(.25 0 0 .25 250 475)"/>
  <path d="M0 0h100v100H0z" style="fill:#132968" transform="matrix(.25 0 0 .25 275 475)"/>
  <path d="M0 0h100v100H0z" style="fill:#132968" transform="matrix(.25 0 0 .25 300 475)"/>
  <path d="M0 0h100v100H0z" style="fill:#132968" transform="matrix(.25 0 0 .25 325 475)"/>
  <path d="M0 0h100v100H0z" style="fill:#132968" transform="matrix(.25 0 0 .25 350 475)"/>
  <path d="M0 0h100v100H0z" style="fill:#132968" transform="matrix(.25 0 0 .25 400 475)"/>
  <path d="M0 0h100v100H0z" style="fill:#132968" transform="matrix(.25 0 0 .25 425 475)"/>
  <path d="M0 0h100v100H0z" style="fill:#132968" transform="matrix(.25 0 0 .25 475 475)"/>
  <path d="M0 0h100v100H0z" style="fill:#132968" transform="matrix(.25 0 0 .25 525 475)"/>
  <path d="M0 0h100v100H0z" style="fill:#132968" transform="matrix(.25 0 0 .25 550 475)"/>
  <path d="M0 0h100v100H0z" style="fill:#132968" transform="matrix(.25 0 0 .25 625 475)"/>
  <path d="M0 0h100v100H0z" style="fill:#132968" transform="matrix(.25 0 0 .25 800 475)"/>
  <path d="M0 0h100v100H0z" style="fill:#132968" transform="matrix(.25 0 0 .25 825 475)"/>
  <path d="M0 0h100v100H0z" style="fill:#132968" transform="matrix(.25 0 0 .25 900 475)"/>
  <path d="M0 0h100v100H0z" style="fill:#132968" transform="matrix(.25 0 0 .25 925 475)"/>
  <path d="M0 0h100v100H0z" style="fill:#132968" transform="matrix(.25 0 0 .25 950 475)"/>
  <path d="M0 0h100v100H0z" style="fill:#132968" transform="matrix(.25 0 0 .25 975 475)"/>
  <path d="M0 0h100v100H0z" style="fill:#132968" transform="matrix(.25 0 0 .25 1050 475)"/>
  <path d="M0 0h100v100H0z" style="fill:#132968" transform="matrix(.25 0 0 .25 50 500)"/>
  <path d="M0 0h100v100H0z" style="fill:#132968" transform="matrix(.25 0 0 .25 75 500)"/>
  <path d="M0 0h100v100H0z" style="fill:#132968" transform="matrix(.25 0 0 .25 125 500)"/>
  <path d="M0 0h100v100H0z" style="fill:#132968" transform="matrix(.25 0 0 .25 150 500)"/>
  <path d="M0 0h100v100H0z" style="fill:#132968" transform="matrix(.25 0 0 .25 200 500)"/>
  <path d="M0 0h100v100H0z" style="fill:#132968" transform="matrix(.25 0 0 .25 225 500)"/>
  <path d="M0 0h100v100H0z" style="fill:#132968" transform="matrix(.25 0 0 .25 275 500)"/>
  <path d="M0 0h100v100H0z" style="fill:#132968" transform="matrix(.25 0 0 .25 300 500)"/>
  <path d="M0 0h100v100H0z" style="fill:#132968" transform="matrix(.25 0 0 .25 400 500)"/>
  <path d="M0 0h100v100H0z" style="fill:#132968" transform="matrix(.25 0 0 .25 450 500)"/>
  <path d="M0 0h100v100H0z" style="fill:#132968" transform="matrix(.25 0 0 .25 475 500)"/>
  <path d="M0 0h100v100H0z" style="fill:#132968" transform="matrix(.25 0 0 .25 550 500)"/>
  <path d="M0 0h100v100H0z" style="fill:#132968" transform="matrix(.25 0 0 .25 600 500)"/>
  <path d="M0 0h100v100H0z" style="fill:#132968" transform="matrix(.25 0 0 .25 650 500)"/>
  <path d="M0 0h100v100H0z" style="fill:#132968" transform="matrix(.25 0 0 .25 725 500)"/>
  <path d="M0 0h100v100H0z" style="fill:#132968" transform="matrix(.25 0 0 .25 850 500)"/>
  <path d="M0 0h100v100H0z" style="fill:#132968" transform="matrix(.25 0 0 .25 900 500)"/>
  <path d="M0 0h100v100H0z" style="fill:#132968" transform="matrix(.25 0 0 .25 950 500)"/>
  <path d="M0 0h100v100H0z" style="fill:#132968" transform="matrix(.25 0 0 .25 975 500)"/>
  <path d="M0 0h100v100H0z" style="fill:#132968" transform="matrix(.25 0 0 .25 125 525)"/>
  <path d="M0 0h100v100H0z" style="fill:#132968" transform="matrix(.25 0 0 .25 225 525)"/>
  <path d="M0 0h100v100H0z" style="fill:#132968" transform="matrix(.25 0 0 .25 250 525)"/>
  <path d="M0 0h100v100H0z" style="fill:#132968" transform="matrix(.25 0 0 .25 300 525)"/>
  <path d="M0 0h100v100H0z" style="fill:#132968" transform="matrix(.25 0 0 .25 375 525)"/>
  <path d="M0 0h100v100H0z" style="fill:#132968" transform="matrix(.25 0 0 .25 475 525)"/>
  <path d="M0 0h100v100H0z" style="fill:#132968" transform="matrix(.25 0 0 .25 500 525)"/>
  <path d="M0 0h100v100H0z" style="fill:#132968" transform="matrix(.25 0 0 .25 550 525)"/>
  <path d="M0 0h100v100H0z" style="fill:#132968" transform="matrix(.25 0 0 .25 575 525)"/>
  <path d="M0 0h100v100H0z" style="fill:#132968" transform="matrix(.25 0 0 .25 600 525)"/>
  <path d="M0 0h100v100H0z" style="fill:#132968" transform="matrix(.25 0 0 .25 650 525)"/>
  <path d="M0 0h100v100H0z" style="fill:#132968" transform="matrix(.25 0 0 .25 700 525)"/>
  <path d="M0 0h100v100H0z" style="fill:#132968" transform="matrix(.25 0 0 .25 750 525)"/>
  <path d="M0 0h100v100H0z" style="fill:#132968" transform="matrix(.25 0 0 .25 800 525)"/>
  <path d="M0 0h100v100H0z" style="fill:#132968" transform="matrix(.25 0 0 .25 850 525)"/>
  <path d="M0 0h100v100H0z" style="fill:#132968" transform="matrix(.25 0 0 .25 900 525)"/>
  <path d="M0 0h100v100H0z" style="fill:#132968" transform="matrix(.25 0 0 .25 950 525)"/>
  <path d="M0 0h100v100H0z" style="fill:#132968" transform="matrix(.25 0 0 .25 975 525)"/>
  <path d="M0 0h100v100H0z" style="fill:#132968" transform="matrix(.25 0 0 .25 50 550)"/>
  <path d="M0 0h100v100H0z" style="fill:#132968" transform="matrix(.25 0 0 .25 100 550)"/>
  <path d="M0 0h100v100H0z" style="fill:#132968" transform="matrix(.25 0 0 .25 125 550)"/>
  <path d="M0 0h100v100H0z" style="fill:#132968" transform="matrix(.25 0 0 .25 150 550)"/>
  <path d="M0 0h100v100H0z" style="fill:#132968" transform="matrix(.25 0 0 .25 175 550)"/>
  <path d="M0 0h100v100H0z" style="fill:#132968" transform="matrix(.25 0 0 .25 200 550)"/>
  <path d="M0 0h100v100H0z" style="fill:#132968" transform="matrix(.25 0 0 .25 250 550)"/>
  <path d="M0 0h100v100H0z" style="fill:#132968" transform="matrix(.25 0 0 .25 300 550)"/>
  <path d="M0 0h100v100H0z" style="fill:#132968" transform="matrix(.25 0 0 .25 325 550)"/>
  <path d="M0 0h100v100H0z" style="fill:#132968" transform="matrix(.25 0 0 .25 400 550)"/>
  <path d="M0 0h100v100H0z" style="fill:#132968" transform="matrix(.25 0 0 .25 450 550)"/>
  <path d="M0 0h100v100H0z" style="fill:#132968" transform="matrix(.25 0 0 .25 525 550)"/>
  <path d="M0 0h100v100H0z" style="fill:#132968" transform="matrix(.25 0 0 .25 600 550)"/>
  <path d="M0 0h100v100H0z" style="fill:#132968" transform="matrix(.25 0 0 .25 675 550)"/>
  <path d="M0 0h100v100H0z" style="fill:#132968" transform="matrix(.25 0 0 .25 700 550)"/>
  <path d="M0 0h100v100H0z" style="fill:#132968" transform="matrix(.25 0 0 .25 725 550)"/>
  <path d="M0 0h100v100H0z" style="fill:#132968" transform="matrix(.25 0 0 .25 750 550)"/>
  <path d="M0 0h100v100H0z" style="fill:#132968" transform="matrix(.25 0 0 .25 775 550)"/>
  <path d="M0 0h100v100H0z" style="fill:#132968" transform="matrix(.25 0 0 .25 850 550)"/>
  <path d="M0 0h100v100H0z" style="fill:#132968" transform="matrix(.25 0 0 .25 875 550)"/>
  <path d="M0 0h100v100H0z" style="fill:#132968" transform="matrix(.25 0 0 .25 925 550)"/>
  <path d="M0 0h100v100H0z" style="fill:#132968" transform="matrix(.25 0 0 .25 950 550)"/>
  <path d="M0 0h100v100H0z" style="fill:#132968" transform="matrix(.25 0 0 .25 975 550)"/>
  <path d="M0 0h100v100H0z" style="fill:#132968" transform="matrix(.25 0 0 .25 1000 550)"/>
  <path d="M0 0h100v100H0z" style="fill:#132968" transform="matrix(.25 0 0 .25 1025 550)"/>
  <path d="M0 0h100v100H0z" style="fill:#132968" transform="matrix(.25 0 0 .25 75 575)"/>
  <path d="M0 0h100v100H0z" style="fill:#132968" transform="matrix(.25 0 0 .25 125 575)"/>
  <path d="M0 0h100v100H0z" style="fill:#132968" transform="matrix(.25 0 0 .25 150 575)"/>
  <path d="M0 0h100v100H0z" style="fill:#132968" transform="matrix(.25 0 0 .25 225 575)"/>
  <path d="M0 0h100v100H0z" style="fill:#132968" transform="matrix(.25 0 0 .25 250 575)"/>
  <path d="M0 0h100v100H0z" style="fill:#132968" transform="matrix(.25 0 0 .25 300 575)"/>
  <path d="M0 0h100v100H0z" style="fill:#132968" transform="matrix(.25 0 0 .25 325 575)"/>
  <path d="M0 0h100v100H0z" style="fill:#132968" transform="matrix(.25 0 0 .25 350 575)"/>
  <path d="M0 0h100v100H0z" style="fill:#132968" transform="matrix(.25 0 0 .25 500 575)"/>
  <path d="M0 0h100v100H0z" style="fill:#132968" transform="matrix(.25 0 0 .25 525 575)"/>
  <path d="M0 0h100v100H0z" style="fill:#132968" transform="matrix(.25 0 0 .25 550 575)"/>
  <path d="M0 0h100v100H0z" style="fill:#132968" transform="matrix(.25 0 0 .25 575 575)"/>
  <path d="M0 0h100v100H0z" style="fill:#132968" transform="matrix(.25 0 0 .25 625 575)"/>
  <path d="M0 0h100v100H0z" style="fill:#132968" transform="matrix(.25 0 0 .25 675 575)"/>
  <path d="M0 0h100v100H0z" style="fill:#132968" transform="matrix(.25 0 0 .25 800 575)"/>
  <path d="M0 0h100v100H0z" style="fill:#132968" transform="matrix(.25 0 0 .25 825 575)"/>
  <path d="M0 0h100v100H0z" style="fill:#132968" transform="matrix(.25 0 0 .25 900 575)"/>
  <path d="M0 0h100v100H0z" style="fill:#132968" transform="matrix(.25 0 0 .25 925 575)"/>
  <path d="M0 0h100v100H0z" style="fill:#132968" transform="matrix(.25 0 0 .25 950 575)"/>
  <path d="M0 0h100v100H0z" style="fill:#132968" transform="matrix(.25 0 0 .25 1025 575)"/>
  <path d="M0 0h100v100H0z" style="fill:#132968" transform="matrix(.25 0 0 .25 1050 575)"/>
  <path d="M0 0h100v100H0z" style="fill:#132968" transform="matrix(.25 0 0 .25 75 600)"/>
  <path d="M0 0h100v100H0z" style="fill:#132968" transform="matrix(.25 0 0 .25 100 600)"/>
  <path d="M0 0h100v100H0z" style="fill:#132968" transform="matrix(.25 0 0 .25 125 600)"/>
  <path d="M0 0h100v100H0z" style="fill:#132968" transform="matrix(.25 0 0 .25 200 600)"/>
  <path d="M0 0h100v100H0z" style="fill:#132968" transform="matrix(.25 0 0 .25 300 600)"/>
  <path d="M0 0h100v100H0z" style="fill:#132968" transform="matrix(.25 0 0 .25 350 600)"/>
  <path d="M0 0h100v100H0z" style="fill:#132968" transform="matrix(.25 0 0 .25 400 600)"/>
  <path d="M0 0h100v100H0z" style="fill:#132968" transform="matrix(.25 0 0 .25 500 600)"/>
  <path d="M0 0h100v100H0z" style="fill:#132968" transform="matrix(.25 0 0 .25 675 600)"/>
  <path d="M0 0h100v100H0z" style="fill:#132968" transform="matrix(.25 0 0 .25 725 600)"/>
  <path d="M0 0h100v100H0z" style="fill:#132968" transform="matrix(.25 0 0 .25 750 600)"/>
  <path d="M0 0h100v100H0z" style="fill:#132968" transform="matrix(.25 0 0 .25 800 600)"/>
  <path d="M0 0h100v100H0z" style="fill:#132968" transform="matrix(.25 0 0 .25 875 600)"/>
  <path d="M0 0h100v100H0z" style="fill:#132968" transform="matrix(.25 0 0 .25 925 600)"/>
  <path d="M0 0h100v100H0z" style="fill:#132968" transform="matrix(.25 0 0 .25 950 600)"/>
  <path d="M0 0h100v100H0z" style="fill:#132968" transform="matrix(.25 0 0 .25 975 600)"/>
  <path d="M0 0h100v100H0z" style="fill:#132968" transform="matrix(.25 0 0 .25 50 625)"/>
  <path d="M0 0h100v100H0z" style="fill:#132968" transform="matrix(.25 0 0 .25 75 625)"/>
  <path d="M0 0h100v100H0z" style="fill:#132968" transform="matrix(.25 0 0 .25 175 625)"/>
  <path d="M0 0h100v100H0z" style="fill:#132968" transform="matrix(.25 0 0 .25 250 625)"/>
  <path d="M0 0h100v100H0z" style="fill:#132968" transform="matrix(.25 0 0 .25 275 625)"/>
  <path d="M0 0h100v100H0z" style="fill:#132968" transform="matrix(.25 0 0 .25 300 625)"/>
  <path d="M0 0h100v100H0z" style="fill:#132968" transform="matrix(.25 0 0 .25 350 625)"/>
  <path d="M0 0h100v100H0z" style="fill:#132968" transform="matrix(.25 0 0 .25 400 625)"/>
  <path d="M0 0h100v100H0z" style="fill:#132968" transform="matrix(.25 0 0 .25 450 625)"/>
  <path d="M0 0h100v100H0z" style="fill:#132968" transform="matrix(.25 0 0 .25 500 625)"/>
  <path d="M0 0h100v100H0z" style="fill:#132968" transform="matrix(.25 0 0 .25 525 625)"/>
  <path d="M0 0h100v100H0z" style="fill:#132968" transform="matrix(.25 0 0 .25 550 625)"/>
  <path d="M0 0h100v100H0z" style="fill:#132968" transform="matrix(.25 0 0 .25 575 625)"/>
  <path d="M0 0h100v100H0z" style="fill:#132968" transform="matrix(.25 0 0 .25 600 625)"/>
  <path d="M0 0h100v100H0z" style="fill:#132968" transform="matrix(.25 0 0 .25 750 625)"/>
  <path d="M0 0h100v100H0z" style="fill:#132968" transform="matrix(.25 0 0 .25 800 625)"/>
  <path d="M0 0h100v100H0z" style="fill:#132968" transform="matrix(.25 0 0 .25 900 625)"/>
  <path d="M0 0h100v100H0z" style="fill:#132968" transform="matrix(.25 0 0 .25 925 625)"/>
  <path d="M0 0h100v100H0z" style="fill:#132968" transform="matrix(.25 0 0 .25 950 625)"/>
  <path d="M0 0h100v100H0z" style="fill:#132968" transform="matrix(.25 0 0 .25 975 625)"/>
  <path d="M0 0h100v100H0z" style="fill:#132968" transform="matrix(.25 0 0 .25 1025 625)"/>
  <path d="M0 0h100v100H0z" style="fill:#132968" transform="matrix(.25 0 0 .25 1050 625)"/>
  <path d="M0 0h100v100H0z" style="fill:#132968" transform="matrix(.25 0 0 .25 50 650)"/>
  <path d="M0 0h100v100H0z" style="fill:#132968" transform="matrix(.25 0 0 .25 75 650)"/>
  <path d="M0 0h100v100H0z" style="fill:#132968" transform="matrix(.25 0 0 .25 175 650)"/>
  <path d="M0 0h100v100H0z" style="fill:#132968" transform="matrix(.25 0 0 .25 200 650)"/>
  <path d="M0 0h100v100H0z" style="fill:#132968" transform="matrix(.25 0 0 .25 250 650)"/>
  <path d="M0 0h100v100H0z" style="fill:#132968" transform="matrix(.25 0 0 .25 300 650)"/>
  <path d="M0 0h100v100H0z" style="fill:#132968" transform="matrix(.25 0 0 .25 325 650)"/>
  <path d="M0 0h100v100H0z" style="fill:#132968" transform="matrix(.25 0 0 .25 375 650)"/>
  <path d="M0 0h100v100H0z" style="fill:#132968" transform="matrix(.25 0 0 .25 475 650)"/>
  <path d="M0 0h100v100H0z" style="fill:#132968" transform="matrix(.25 0 0 .25 525 650)"/>
  <path d="M0 0h100v100H0z" style="fill:#132968" transform="matrix(.25 0 0 .25 600 650)"/>
  <path d="M0 0h100v100H0z" style="fill:#132968" transform="matrix(.25 0 0 .25 675 650)"/>
  <path d="M0 0h100v100H0z" style="fill:#132968" transform="matrix(.25 0 0 .25 700 650)"/>
  <path d="M0 0h100v100H0z" style="fill:#132968" transform="matrix(.25 0 0 .25 775 650)"/>
  <path d="M0 0h100v100H0z" style="fill:#132968" transform="matrix(.25 0 0 .25 1000 650)"/>
  <path d="M0 0h100v100H0z" style="fill:#132968" transform="matrix(.25 0 0 .25 125 675)"/>
  <path d="M0 0h100v100H0z" style="fill:#132968" transform="matrix(.25 0 0 .25 225 675)"/>
  <path d="M0 0h100v100H0z" style="fill:#132968" transform="matrix(.25 0 0 .25 275 675)"/>
  <path d="M0 0h100v100H0z" style="fill:#132968" transform="matrix(.25 0 0 .25 325 675)"/>
  <path d="M0 0h100v100H0z" style="fill:#132968" transform="matrix(.25 0 0 .25 350 675)"/>
  <path d="M0 0h100v100H0z" style="fill:#132968" transform="matrix(.25 0 0 .25 375 675)"/>
  <path d="M0 0h100v100H0z" style="fill:#132968" transform="matrix(.25 0 0 .25 425 675)"/>
  <path d="M0 0h100v100H0z" style="fill:#132968" transform="matrix(.25 0 0 .25 500 675)"/>
  <path d="M0 0h100v100H0z" style="fill:#132968" transform="matrix(.25 0 0 .25 525 675)"/>
  <path d="M0 0h100v100H0z" style="fill:#132968" transform="matrix(.25 0 0 .25 625 675)"/>
  <path d="M0 0h100v100H0z" style="fill:#132968" transform="matrix(.25 0 0 .25 700 675)"/>
  <path d="M0 0h100v100H0z" style="fill:#132968" transform="matrix(.25 0 0 .25 750 675)"/>
  <path d="M0 0h100v100H0z" style="fill:#132968" transform="matrix(.25 0 0 .25 825 675)"/>
  <path d="M0 0h100v100H0z" style="fill:#132968" transform="matrix(.25 0 0 .25 875 675)"/>
  <path d="M0 0h100v100H0z" style="fill:#132968" transform="matrix(.25 0 0 .25 950 675)"/>
  <path d="M0 0h100v100H0z" style="fill:#132968" transform="matrix(.25 0 0 .25 975 675)"/>
  <path d="M0 0h100v100H0z" style="fill:#132968" transform="matrix(.25 0 0 .25 1050 675)"/>
  <path d="M0 0h100v100H0z" style="fill:#132968" transform="matrix(.25 0 0 .25 50 700)"/>
  <path d="M0 0h100v100H0z" style="fill:#132968" transform="matrix(.25 0 0 .25 200 700)"/>
  <path d="M0 0h100v100H0z" style="fill:#132968" transform="matrix(.25 0 0 .25 275 700)"/>
  <path d="M0 0h100v100H0z" style="fill:#132968" transform="matrix(.25 0 0 .25 350 700)"/>
  <path d="M0 0h100v100H0z" style="fill:#132968" transform="matrix(.25 0 0 .25 425 700)"/>
  <path d="M0 0h100v100H0z" style="fill:#132968" transform="matrix(.25 0 0 .25 475 700)"/>
  <path d="M0 0h100v100H0z" style="fill:#132968" transform="matrix(.25 0 0 .25 550 700)"/>
  <path d="M0 0h100v100H0z" style="fill:#132968" transform="matrix(.25 0 0 .25 575 700)"/>
  <path d="M0 0h100v100H0z" style="fill:#132968" transform="matrix(.25 0 0 .25 600 700)"/>
  <path d="M0 0h100v100H0z" style="fill:#132968" transform="matrix(.25 0 0 .25 700 700)"/>
  <path d="M0 0h100v100H0z" style="fill:#132968" transform="matrix(.25 0 0 .25 725 700)"/>
  <path d="M0 0h100v100H0z" style="fill:#132968" transform="matrix(.25 0 0 .25 850 700)"/>
  <path d="M0 0h100v100H0z" style="fill:#132968" transform="matrix(.25 0 0 .25 875 700)"/>
  <path d="M0 0h100v100H0z" style="fill:#132968" transform="matrix(.25 0 0 .25 925 700)"/>
  <path d="M0 0h100v100H0z" style="fill:#132968" transform="matrix(.25 0 0 .25 75 725)"/>
  <path d="M0 0h100v100H0z" style="fill:#132968" transform="matrix(.25 0 0 .25 100 725)"/>
  <path d="M0 0h100v100H0z" style="fill:#132968" transform="matrix(.25 0 0 .25 125 725)"/>
  <path d="M0 0h100v100H0z" style="fill:#132968" transform="matrix(.25 0 0 .25 225 725)"/>
  <path d="M0 0h100v100H0z" style="fill:#132968" transform="matrix(.25 0 0 .25 300 725)"/>
  <path d="M0 0h100v100H0z" style="fill:#132968" transform="matrix(.25 0 0 .25 325 725)"/>
  <path d="M0 0h100v100H0z" style="fill:#132968" transform="matrix(.25 0 0 .25 375 725)"/>
  <path d="M0 0h100v100H0z" style="fill:#132968" transform="matrix(.25 0 0 .25 400 725)"/>
  <path d="M0 0h100v100H0z" style="fill:#132968" transform="matrix(.25 0 0 .25 550 725)"/>
  <path d="M0 0h100v100H0z" style="fill:#132968" transform="matrix(.25 0 0 .25 575 725)"/>
  <path d="M0 0h100v100H0z" style="fill:#132968" transform="matrix(.25 0 0 .25 625 725)"/>
  <path d="M0 0h100v100H0z" style="fill:#132968" transform="matrix(.25 0 0 .25 650 725)"/>
  <path d="M0 0h100v100H0z" style="fill:#132968" transform="matrix(.25 0 0 .25 750 725)"/>
  <path d="M0 0h100v100H0z" style="fill:#132968" transform="matrix(.25 0 0 .25 800 725)"/>
  <path d="M0 0h100v100H0z" style="fill:#132968" transform="matrix(.25 0 0 .25 825 725)"/>
  <path d="M0 0h100v100H0z" style="fill:#132968" transform="matrix(.25 0 0 .25 850 725)"/>
  <path d="M0 0h100v100H0z" style="fill:#132968" transform="matrix(.25 0 0 .25 925 725)"/>
  <path d="M0 0h100v100H0z" style="fill:#132968" transform="matrix(.25 0 0 .25 975 725)"/>
  <path d="M0 0h100v100H0z" style="fill:#132968" transform="matrix(.25 0 0 .25 1050 725)"/>
  <path d="M0 0h100v100H0z" style="fill:#132968" transform="matrix(.25 0 0 .25 50 750)"/>
  <path d="M0 0h100v100H0z" style="fill:#132968" transform="matrix(.25 0 0 .25 125 750)"/>
  <path d="M0 0h100v100H0z" style="fill:#132968" transform="matrix(.25 0 0 .25 200 750)"/>
  <path d="M0 0h100v100H0z" style="fill:#132968" transform="matrix(.25 0 0 .25 225 750)"/>
  <path d="M0 0h100v100H0z" style="fill:#132968" transform="matrix(.25 0 0 .25 325 750)"/>
  <path d="M0 0h100v100H0z" style="fill:#132968" transform="matrix(.25 0 0 .25 350 750)"/>
  <path d="M0 0h100v100H0z" style="fill:#132968" transform="matrix(.25 0 0 .25 375 750)"/>
  <path d="M0 0h100v100H0z" style="fill:#132968" transform="matrix(.25 0 0 .25 400 750)"/>
  <path d="M0 0h100v100H0z" style="fill:#132968" transform="matrix(.25 0 0 .25 425 750)"/>
  <path d="M0 0h100v100H0z" style="fill:#132968" transform="matrix(.25 0 0 .25 450 750)"/>
  <path d="M0 0h100v100H0z" style="fill:#132968" transform="matrix(.25 0 0 .25 475 750)"/>
  <path d="M0 0h100v100H0z" style="fill:#132968" transform="matrix(.25 0 0 .25 525 750)"/>
  <path d="M0 0h100v100H0z" style="fill:#132968" transform="matrix(.25 0 0 .25 600 750)"/>
  <path d="M0 0h100v100H0z" style="fill:#132968" transform="matrix(.25 0 0 .25 650 750)"/>
  <path d="M0 0h100v100H0z" style="fill:#132968" transform="matrix(.25 0 0 .25 675 750)"/>
  <path d="M0 0h100v100H0z" style="fill:#132968" transform="matrix(.25 0 0 .25 700 750)"/>
  <path d="M0 0h100v100H0z" style="fill:#132968" transform="matrix(.25 0 0 .25 750 750)"/>
  <path d="M0 0h100v100H0z" style="fill:#132968" transform="matrix(.25 0 0 .25 775 750)"/>
  <path d="M0 0h100v100H0z" style="fill:#132968" transform="matrix(.25 0 0 .25 800 750)"/>
  <path d="M0 0h100v100H0z" style="fill:#132968" transform="matrix(.25 0 0 .25 825 750)"/>
  <path d="M0 0h100v100H0z" style="fill:#132968" transform="matrix(.25 0 0 .25 925 750)"/>
  <path d="M0 0h100v100H0z" style="fill:#132968" transform="matrix(.25 0 0 .25 975 750)"/>
  <path d="M0 0h100v100H0z" style="fill:#132968" transform="matrix(.25 0 0 .25 1000 750)"/>
  <path d="M0 0h100v100H0z" style="fill:#132968" transform="matrix(.25 0 0 .25 1050 750)"/>
  <path d="M0 0h100v100H0z" style="fill:#132968" transform="matrix(.25 0 0 .25 50 775)"/>
  <path d="M0 0h100v100H0z" style="fill:#132968" transform="matrix(.25 0 0 .25 100 775)"/>
  <path d="M0 0h100v100H0z" style="fill:#132968" transform="matrix(.25 0 0 .25 125 775)"/>
  <path d="M0 0h100v100H0z" style="fill:#132968" transform="matrix(.25 0 0 .25 325 775)"/>
  <path d="M0 0h100v100H0z" style="fill:#132968" transform="matrix(.25 0 0 .25 400 775)"/>
  <path d="M0 0h100v100H0z" style="fill:#132968" transform="matrix(.25 0 0 .25 425 775)"/>
  <path d="M0 0h100v100H0z" style="fill:#132968" transform="matrix(.25 0 0 .25 450 775)"/>
  <path d="M0 0h100v100H0z" style="fill:#132968" transform="matrix(.25 0 0 .25 500 775)"/>
  <path d="M0 0h100v100H0z" style="fill:#132968" transform="matrix(.25 0 0 .25 575 775)"/>
  <path d="M0 0h100v100H0z" style="fill:#132968" transform="matrix(.25 0 0 .25 625 775)"/>
  <path d="M0 0h100v100H0z" style="fill:#132968" transform="matrix(.25 0 0 .25 750 775)"/>
  <path d="M0 0h100v100H0z" style="fill:#132968" transform="matrix(.25 0 0 .25 825 775)"/>
  <path d="M0 0h100v100H0z" style="fill:#132968" transform="matrix(.25 0 0 .25 850 775)"/>
  <path d="M0 0h100v100H0z" style="fill:#132968" transform="matrix(.25 0 0 .25 900 775)"/>
  <path d="M0 0h100v100H0z" style="fill:#132968" transform="matrix(.25 0 0 .25 950 775)"/>
  <path d="M0 0h100v100H0z" style="fill:#132968" transform="matrix(.25 0 0 .25 1000 775)"/>
  <path d="M0 0h100v100H0z" style="fill:#132968" transform="matrix(.25 0 0 .25 1025 775)"/>
  <path d="M0 0h100v100H0z" style="fill:#132968" transform="matrix(.25 0 0 .25 1050 775)"/>
  <path d="M0 0h100v100H0z" style="fill:#132968" transform="matrix(.25 0 0 .25 50 800)"/>
  <path d="M0 0h100v100H0z" style="fill:#132968" transform="matrix(.25 0 0 .25 100 800)"/>
  <path d="M0 0h100v100H0z" style="fill:#132968" transform="matrix(.25 0 0 .25 125 800)"/>
  <path d="M0 0h100v100H0z" style="fill:#132968" transform="matrix(.25 0 0 .25 150 800)"/>
  <path d="M0 0h100v100H0z" style="fill:#132968" transform="matrix(.25 0 0 .25 200 800)"/>
  <path d="M0 0h100v100H0z" style="fill:#132968" transform="matrix(.25 0 0 .25 225 800)"/>
  <path d="M0 0h100v100H0z" style="fill:#132968" transform="matrix(.25 0 0 .25 275 800)"/>
  <path d="M0 0h100v100H0z" style="fill:#132968" transform="matrix(.25 0 0 .25 300 800)"/>
  <path d="M0 0h100v100H0z" style="fill:#132968" transform="matrix(.25 0 0 .25 325 800)"/>
  <path d="M0 0h100v100H0z" style="fill:#132968" transform="matrix(.25 0 0 .25 350 800)"/>
  <path d="M0 0h100v100H0z" style="fill:#132968" transform="matrix(.25 0 0 .25 375 800)"/>
  <path d="M0 0h100v100H0z" style="fill:#132968" transform="matrix(.25 0 0 .25 400 800)"/>
  <path d="M0 0h100v100H0z" style="fill:#132968" transform="matrix(.25 0 0 .25 500 800)"/>
  <path d="M0 0h100v100H0z" style="fill:#132968" transform="matrix(.25 0 0 .25 600 800)"/>
  <path d="M0 0h100v100H0z" style="fill:#132968" transform="matrix(.25 0 0 .25 725 800)"/>
  <path d="M0 0h100v100H0z" style="fill:#132968" transform="matrix(.25 0 0 .25 750 800)"/>
  <path d="M0 0h100v100H0z" style="fill:#132968" transform="matrix(.25 0 0 .25 875 800)"/>
  <path d="M0 0h100v100H0z" style="fill:#132968" transform="matrix(.25 0 0 .25 900 800)"/>
  <path d="M0 0h100v100H0z" style="fill:#132968" transform="matrix(.25 0 0 .25 1000 800)"/>
  <path d="M0 0h100v100H0z" style="fill:#132968" transform="matrix(.25 0 0 .25 50 825)"/>
  <path d="M0 0h100v100H0z" style="fill:#132968" transform="matrix(.25 0 0 .25 125 825)"/>
  <path d="M0 0h100v100H0z" style="fill:#132968" transform="matrix(.25 0 0 .25 225 825)"/>
  <path d="M0 0h100v100H0z" style="fill:#132968" transform="matrix(.25 0 0 .25 325 825)"/>
  <path d="M0 0h100v100H0z" style="fill:#132968" transform="matrix(.25 0 0 .25 350 825)"/>
  <path d="M0 0h100v100H0z" style="fill:#132968" transform="matrix(.25 0 0 .25 450 825)"/>
  <path d="M0 0h100v100H0z" style="fill:#132968" transform="matrix(.25 0 0 .25 500 825)"/>
  <path d="M0 0h100v100H0z" style="fill:#132968" transform="matrix(.25 0 0 .25 525 825)"/>
  <path d="M0 0h100v100H0z" style="fill:#132968" transform="matrix(.25 0 0 .25 550 825)"/>
  <path d="M0 0h100v100H0z" style="fill:#132968" transform="matrix(.25 0 0 .25 575 825)"/>
  <path d="M0 0h100v100H0z" style="fill:#132968" transform="matrix(.25 0 0 .25 600 825)"/>
  <path d="M0 0h100v100H0z" style="fill:#132968" transform="matrix(.25 0 0 .25 625 825)"/>
  <path d="M0 0h100v100H0z" style="fill:#132968" transform="matrix(.25 0 0 .25 700 825)"/>
  <path d="M0 0h100v100H0z" style="fill:#132968" transform="matrix(.25 0 0 .25 725 825)"/>
  <path d="M0 0h100v100H0z" style="fill:#132968" transform="matrix(.25 0 0 .25 750 825)"/>
  <path d="M0 0h100v100H0z" style="fill:#132968" transform="matrix(.25 0 0 .25 825 825)"/>
  <path d="M0 0h100v100H0z" style="fill:#132968" transform="matrix(.25 0 0 .25 875 825)"/>
  <path d="M0 0h100v100H0z" style="fill:#132968" transform="matrix(.25 0 0 .25 900 825)"/>
  <path d="M0 0h100v100H0z" style="fill:#132968" transform="matrix(.25 0 0 .25 975 825)"/>
  <path d="M0 0h100v100H0z" style="fill:#132968" transform="matrix(.25 0 0 .25 1050 825)"/>
  <path d="M0 0h100v100H0z" style="fill:#132968" transform="matrix(.25 0 0 .25 50 850)"/>
  <path d="M0 0h100v100H0z" style="fill:#132968" transform="matrix(.25 0 0 .25 100 850)"/>
  <path d="M0 0h100v100H0z" style="fill:#132968" transform="matrix(.25 0 0 .25 150 850)"/>
  <path d="M0 0h100v100H0z" style="fill:#132968" transform="matrix(.25 0 0 .25 200 850)"/>
  <path d="M0 0h100v100H0z" style="fill:#132968" transform="matrix(.25 0 0 .25 300 850)"/>
  <path d="M0 0h100v100H0z" style="fill:#132968" transform="matrix(.25 0 0 .25 350 850)"/>
  <path d="M0 0h100v100H0z" style="fill:#132968" transform="matrix(.25 0 0 .25 525 850)"/>
  <path d="M0 0h100v100H0z" style="fill:#132968" transform="matrix(.25 0 0 .25 550 850)"/>
  <path d="M0 0h100v100H0z" style="fill:#132968" transform="matrix(.25 0 0 .25 600 850)"/>
  <path d="M0 0h100v100H0z" style="fill:#132968" transform="matrix(.25 0 0 .25 625 850)"/>
  <path d="M0 0h100v100H0z" style="fill:#132968" transform="matrix(.25 0 0 .25 675 850)"/>
  <path d="M0 0h100v100H0z" style="fill:#132968" transform="matrix(.25 0 0 .25 700 850)"/>
  <path d="M0 0h100v100H0z" style="fill:#132968" transform="matrix(.25 0 0 .25 775 850)"/>
  <path d="M0 0h100v100H0z" style="fill:#132968" transform="matrix(.25 0 0 .25 800 850)"/>
  <path d="M0 0h100v100H0z" style="fill:#132968" transform="matrix(.25 0 0 .25 850 850)"/>
  <path d="M0 0h100v100H0z" style="fill:#132968" transform="matrix(.25 0 0 .25 875 850)"/>
  <path d="M0 0h100v100H0z" style="fill:#132968" transform="matrix(.25 0 0 .25 900 850)"/>
  <path d="M0 0h100v100H0z" style="fill:#132968" transform="matrix(.25 0 0 .25 925 850)"/>
  <path d="M0 0h100v100H0z" style="fill:#132968" transform="matrix(.25 0 0 .25 950 850)"/>
  <path d="M0 0h100v100H0z" style="fill:#132968" transform="matrix(.25 0 0 .25 975 850)"/>
  <path d="M0 0h100v100H0z" style="fill:#132968" transform="matrix(.25 0 0 .25 1000 850)"/>
  <path d="M0 0h100v100H0z" style="fill:#132968" transform="matrix(.25 0 0 .25 1050 850)"/>
  <path d="M0 0h100v100H0z" style="fill:#132968" transform="matrix(.25 0 0 .25 250 875)"/>
  <path d="M0 0h100v100H0z" style="fill:#132968" transform="matrix(.25 0 0 .25 275 875)"/>
  <path d="M0 0h100v100H0z" style="fill:#132968" transform="matrix(.25 0 0 .25 300 875)"/>
  <path d="M0 0h100v100H0z" style="fill:#132968" transform="matrix(.25 0 0 .25 325 875)"/>
  <path d="M0 0h100v100H0z" style="fill:#132968" transform="matrix(.25 0 0 .25 350 875)"/>
  <path d="M0 0h100v100H0z" style="fill:#132968" transform="matrix(.25 0 0 .25 375 875)"/>
  <path d="M0 0h100v100H0z" style="fill:#132968" transform="matrix(.25 0 0 .25 400 875)"/>
  <path d="M0 0h100v100H0z" style="fill:#132968" transform="matrix(.25 0 0 .25 450 875)"/>
  <path d="M0 0h100v100H0z" style="fill:#132968" transform="matrix(.25 0 0 .25 525 875)"/>
  <path d="M0 0h100v100H0z" style="fill:#132968" transform="matrix(.25 0 0 .25 625 875)"/>
  <path d="M0 0h100v100H0z" style="fill:#132968" transform="matrix(.25 0 0 .25 675 875)"/>
  <path d="M0 0h100v100H0z" style="fill:#132968" transform="matrix(.25 0 0 .25 725 875)"/>
  <path d="M0 0h100v100H0z" style="fill:#132968" transform="matrix(.25 0 0 .25 750 875)"/>
  <path d="M0 0h100v100H0z" style="fill:#132968" transform="matrix(.25 0 0 .25 850 875)"/>
  <path d="M0 0h100v100H0z" style="fill:#132968" transform="matrix(.25 0 0 .25 950 875)"/>
  <path d="M0 0h100v100H0z" style="fill:#132968" transform="matrix(.25 0 0 .25 1050 875)"/>
  <path d="M0 0h100v100H0z" style="fill:#132968" transform="matrix(.25 0 0 .25 275 900)"/>
  <path d="M0 0h100v100H0z" style="fill:#132968" transform="matrix(.25 0 0 .25 350 900)"/>
  <path d="M0 0h100v100H0z" style="fill:#132968" transform="matrix(.25 0 0 .25 375 900)"/>
  <path d="M0 0h100v100H0z" style="fill:#132968" transform="matrix(.25 0 0 .25 425 900)"/>
  <path d="M0 0h100v100H0z" style="fill:#132968" transform="matrix(.25 0 0 .25 500 900)"/>
  <path d="M0 0h100v100H0z" style="fill:#132968" transform="matrix(.25 0 0 .25 600 900)"/>
  <path d="M0 0h100v100H0z" style="fill:#132968" transform="matrix(.25 0 0 .25 675 900)"/>
  <path d="M0 0h100v100H0z" style="fill:#132968" transform="matrix(.25 0 0 .25 700 900)"/>
  <path d="M0 0h100v100H0z" style="fill:#132968" transform="matrix(.25 0 0 .25 725 900)"/>
  <path d="M0 0h100v100H0z" style="fill:#132968" transform="matrix(.25 0 0 .25 825 900)"/>
  <path d="M0 0h100v100H0z" style="fill:#132968" transform="matrix(.25 0 0 .25 850 900)"/>
  <path d="M0 0h100v100H0z" style="fill:#132968" transform="matrix(.25 0 0 .25 900 900)"/>
  <path d="M0 0h100v100H0z" style="fill:#132968" transform="matrix(.25 0 0 .25 950 900)"/>
  <path d="M0 0h100v100H0z" style="fill:#132968" transform="matrix(.25 0 0 .25 1000 900)"/>
  <path d="M0 0h100v100H0z" style="fill:#132968" transform="matrix(.25 0 0 .25 1025 900)"/>
  <path d="M0 0h100v100H0z" style="fill:#132968" transform="matrix(.25 0 0 .25 250 925)"/>
  <path d="M0 0h100v100H0z" style="fill:#132968" transform="matrix(.25 0 0 .25 275 925)"/>
  <path d="M0 0h100v100H0z" style="fill:#132968" transform="matrix(.25 0 0 .25 300 925)"/>
  <path d="M0 0h100v100H0z" style="fill:#132968" transform="matrix(.25 0 0 .25 350 925)"/>
  <path d="M0 0h100v100H0z" style="fill:#132968" transform="matrix(.25 0 0 .25 400 925)"/>
  <path d="M0 0h100v100H0z" style="fill:#132968" transform="matrix(.25 0 0 .25 525 925)"/>
  <path d="M0 0h100v100H0z" style="fill:#132968" transform="matrix(.25 0 0 .25 550 925)"/>
  <path d="M0 0h100v100H0z" style="fill:#132968" transform="matrix(.25 0 0 .25 575 925)"/>
  <path d="M0 0h100v100H0z" style="fill:#132968" transform="matrix(.25 0 0 .25 600 925)"/>
  <path d="M0 0h100v100H0z" style="fill:#132968" transform="matrix(.25 0 0 .25 850 925)"/>
  <path d="M0 0h100v100H0z" style="fill:#132968" transform="matrix(.25 0 0 .25 950 925)"/>
  <path d="M0 0h100v100H0z" style="fill:#132968" transform="matrix(.25 0 0 .25 975 925)"/>
  <path d="M0 0h100v100H0z" style="fill:#132968" transform="matrix(.25 0 0 .25 1025 925)"/>
  <path d="M0 0h100v100H0z" style="fill:#132968" transform="matrix(.25 0 0 .25 250 950)"/>
  <path d="M0 0h100v100H0z" style="fill:#132968" transform="matrix(.25 0 0 .25 275 950)"/>
  <path d="M0 0h100v100H0z" style="fill:#132968" transform="matrix(.25 0 0 .25 300 950)"/>
  <path d="M0 0h100v100H0z" style="fill:#132968" transform="matrix(.25 0 0 .25 350 950)"/>
  <path d="M0 0h100v100H0z" style="fill:#132968" transform="matrix(.25 0 0 .25 375 950)"/>
  <path d="M0 0h100v100H0z" style="fill:#132968" transform="matrix(.25 0 0 .25 425 950)"/>
  <path d="M0 0h100v100H0z" style="fill:#132968" transform="matrix(.25 0 0 .25 450 950)"/>
  <path d="M0 0h100v100H0z" style="fill:#132968" transform="matrix(.25 0 0 .25 500 950)"/>
  <path d="M0 0h100v100H0z" style="fill:#132968" transform="matrix(.25 0 0 .25 525 950)"/>
  <path d="M0 0h100v100H0z" style="fill:#132968" transform="matrix(.25 0 0 .25 600 950)"/>
  <path d="M0 0h100v100H0z" style="fill:#132968" transform="matrix(.25 0 0 .25 625 950)"/>
  <path d="M0 0h100v100H0z" style="fill:#132968" transform="matrix(.25 0 0 .25 650 950)"/>
  <path d="M0 0h100v100H0z" style="fill:#132968" transform="matrix(.25 0 0 .25 700 950)"/>
  <path d="M0 0h100v100H0z" style="fill:#132968" transform="matrix(.25 0 0 .25 725 950)"/>
  <path d="M0 0h100v100H0z" style="fill:#132968" transform="matrix(.25 0 0 .25 775 950)"/>
  <path d="M0 0h100v100H0z" style="fill:#132968" transform="matrix(.25 0 0 .25 800 950)"/>
  <path d="M0 0h100v100H0z" style="fill:#132968" transform="matrix(.25 0 0 .25 850 950)"/>
  <path d="M0 0h100v100H0z" style="fill:#132968" transform="matrix(.25 0 0 .25 875 950)"/>
  <path d="M0 0h100v100H0z" style="fill:#132968" transform="matrix(.25 0 0 .25 900 950)"/>
  <path d="M0 0h100v100H0z" style="fill:#132968" transform="matrix(.25 0 0 .25 925 950)"/>
  <path d="M0 0h100v100H0z" style="fill:#132968" transform="matrix(.25 0 0 .25 950 950)"/>
  <path d="M0 0h100v100H0z" style="fill:#132968" transform="matrix(.25 0 0 .25 1000 950)"/>
  <path d="M0 0h100v100H0z" style="fill:#132968" transform="matrix(.25 0 0 .25 1050 950)"/>
  <path d="M0 0h100v100H0z" style="fill:#132968" transform="matrix(.25 0 0 .25 250 975)"/>
  <path d="M0 0h100v100H0z" style="fill:#132968" transform="matrix(.25 0 0 .25 275 975)"/>
  <path d="M0 0h100v100H0z" style="fill:#132968" transform="matrix(.25 0 0 .25 300 975)"/>
  <path d="M0 0h100v100H0z" style="fill:#132968" transform="matrix(.25 0 0 .25 325 975)"/>
  <path d="M0 0h100v100H0z" style="fill:#132968" transform="matrix(.25 0 0 .25 350 975)"/>
  <path d="M0 0h100v100H0z" style="fill:#132968" transform="matrix(.25 0 0 .25 375 975)"/>
  <path d="M0 0h100v100H0z" style="fill:#132968" transform="matrix(.25 0 0 .25 400 975)"/>
  <path d="M0 0h100v100H0z" style="fill:#132968" transform="matrix(.25 0 0 .25 450 975)"/>
  <path d="M0 0h100v100H0z" style="fill:#132968" transform="matrix(.25 0 0 .25 525 975)"/>
  <path d="M0 0h100v100H0z" style="fill:#132968" transform="matrix(.25 0 0 .25 550 975)"/>
  <path d="M0 0h100v100H0z" style="fill:#132968" transform="matrix(.25 0 0 .25 625 975)"/>
  <path d="M0 0h100v100H0z" style="fill:#132968" transform="matrix(.25 0 0 .25 700 975)"/>
  <path d="M0 0h100v100H0z" style="fill:#132968" transform="matrix(.25 0 0 .25 750 975)"/>
  <path d="M0 0h100v100H0z" style="fill:#132968" transform="matrix(.25 0 0 .25 800 975)"/>
  <path d="M0 0h100v100H0z" style="fill:#132968" transform="matrix(.25 0 0 .25 825 975)"/>
  <path d="M0 0h100v100H0z" style="fill:#132968" transform="matrix(.25 0 0 .25 875 975)"/>
  <path d="M0 0h100v100H0z" style="fill:#132968" transform="matrix(.25 0 0 .25 925 975)"/>
  <path d="M0 0h100v100H0z" style="fill:#132968" transform="matrix(.25 0 0 .25 975 975)"/>
  <path d="M0 0h100v100H0z" style="fill:#132968" transform="matrix(.25 0 0 .25 1025 975)"/>
  <path d="M0 0h100v100H0z" style="fill:#132968" transform="matrix(.25 0 0 .25 1050 975)"/>
  <path d="M0 0h100v100H0z" style="fill:#132968" transform="matrix(.25 0 0 .25 250 1000)"/>
  <path d="M0 0h100v100H0z" style="fill:#132968" transform="matrix(.25 0 0 .25 275 1000)"/>
  <path d="M0 0h100v100H0z" style="fill:#132968" transform="matrix(.25 0 0 .25 325 1000)"/>
  <path d="M0 0h100v100H0z" style="fill:#132968" transform="matrix(.25 0 0 .25 350 1000)"/>
  <path d="M0 0h100v100H0z" style="fill:#132968" transform="matrix(.25 0 0 .25 375 1000)"/>
  <path d="M0 0h100v100H0z" style="fill:#132968" transform="matrix(.25 0 0 .25 550 1000)"/>
  <path d="M0 0h100v100H0z" style="fill:#132968" transform="matrix(.25 0 0 .25 600 1000)"/>
  <path d="M0 0h100v100H0z" style="fill:#132968" transform="matrix(.25 0 0 .25 700 1000)"/>
  <path d="M0 0h100v100H0z" style="fill:#132968" transform="matrix(.25 0 0 .25 725 1000)"/>
  <path d="M0 0h100v100H0z" style="fill:#132968" transform="matrix(.25 0 0 .25 750 1000)"/>
  <path d="M0 0h100v100H0z" style="fill:#132968" transform="matrix(.25 0 0 .25 800 1000)"/>
  <path d="M0 0h100v100H0z" style="fill:#132968" transform="matrix(.25 0 0 .25 875 1000)"/>
  <path d="M0 0h100v100H0z" style="fill:#132968" transform="matrix(.25 0 0 .25 900 1000)"/>
  <path d="M0 0h100v100H0z" style="fill:#132968" transform="matrix(.25 0 0 .25 925 1000)"/>
  <path d="M0 0h100v100H0z" style="fill:#132968" transform="matrix(.25 0 0 .25 950 1000)"/>
  <path d="M0 0h100v100H0z" style="fill:#132968" transform="matrix(.25 0 0 .25 975 1000)"/>
  <path d="M0 0h100v100H0z" style="fill:#132968" transform="matrix(.25 0 0 .25 1000 1000)"/>
  <path d="M0 0h100v100H0z" style="fill:#132968" transform="matrix(.25 0 0 .25 400 1025)"/>
  <path d="M0 0h100v100H0z" style="fill:#132968" transform="matrix(.25 0 0 .25 425 1025)"/>
  <path d="M0 0h100v100H0z" style="fill:#132968" transform="matrix(.25 0 0 .25 450 1025)"/>
  <path d="M0 0h100v100H0z" style="fill:#132968" transform="matrix(.25 0 0 .25 475 1025)"/>
  <path d="M0 0h100v100H0z" style="fill:#132968" transform="matrix(.25 0 0 .25 575 1025)"/>
  <path d="M0 0h100v100H0z" style="fill:#132968" transform="matrix(.25 0 0 .25 600 1025)"/>
  <path d="M0 0h100v100H0z" style="fill:#132968" transform="matrix(.25 0 0 .25 700 1025)"/>
  <path d="M0 0h100v100H0z" style="fill:#132968" transform="matrix(.25 0 0 .25 725 1025)"/>
  <path d="M0 0h100v100H0z" style="fill:#132968" transform="matrix(.25 0 0 .25 800 1025)"/>
  <path d="M0 0h100v100H0z" style="fill:#132968" transform="matrix(.25 0 0 .25 825 1025)"/>
  <path d="M0 0h100v100H0z" style="fill:#132968" transform="matrix(.25 0 0 .25 850 1025)"/>
  <path d="M0 0h100v100H0z" style="fill:#132968" transform="matrix(.25 0 0 .25 875 1025)"/>
  <path d="M0 0h100v100H0z" style="fill:#132968" transform="matrix(.25 0 0 .25 950 1025)"/>
  <path d="M0 0h100v100H0z" style="fill:#132968" transform="matrix(.25 0 0 .25 975 1025)"/>
  <path d="M0 0h100v100H0z" style="fill:#132968" transform="matrix(.25 0 0 .25 1025 1025)"/>
  <path d="M0 0h100v100H0z" style="fill:#132968" transform="matrix(.25 0 0 .25 250 1050)"/>
  <path d="M0 0h100v100H0z" style="fill:#132968" transform="matrix(.25 0 0 .25 275 1050)"/>
  <path d="M0 0h100v100H0z" style="fill:#132968" transform="matrix(.25 0 0 .25 300 1050)"/>
  <path d="M0 0h100v100H0z" style="fill:#132968" transform="matrix(.25 0 0 .25 350 1050)"/>
  <path d="M0 0h100v100H0z" style="fill:#132968" transform="matrix(.25 0 0 .25 375 1050)"/>
  <path d="M0 0h100v100H0z" style="fill:#132968" transform="matrix(.25 0 0 .25 475 1050)"/>
  <path d="M0 0h100v100H0z" style="fill:#132968" transform="matrix(.25 0 0 .25 500 1050)"/>
  <path d="M0 0h100v100H0z" style="fill:#132968" transform="matrix(.25 0 0 .25 525 1050)"/>
  <path d="M0 0h100v100H0z" style="fill:#132968" transform="matrix(.25 0 0 .25 600 1050)"/>
  <path d="M0 0h100v100H0z" style="fill:#132968" transform="matrix(.25 0 0 .25 675 1050)"/>
  <path d="M0 0h100v100H0z" style="fill:#132968" transform="matrix(.25 0 0 .25 700 1050)"/>
  <path d="M0 0h100v100H0z" style="fill:#132968" transform="matrix(.25 0 0 .25 725 1050)"/>
  <path d="M0 0h100v100H0z" style="fill:#132968" transform="matrix(.25 0 0 .25 775 1050)"/>
  <path d="M0 0h100v100H0z" style="fill:#132968" transform="matrix(.25 0 0 .25 800 1050)"/>
  <path d="M0 0h100v100H0z" style="fill:#132968" transform="matrix(.25 0 0 .25 925 1050)"/>
  <path d="M0 0h100v100H0z" style="fill:#132968" transform="matrix(.25 0 0 .25 950 1050)"/>
  <path d="M0 0h100v100H0z" style="fill:#132968" transform="matrix(.25 0 0 .25 1000 1050)"/>
  <g style="fill:#132968">
    <path d="M51 16c-19.299 0-35 15.701-35 35s15.701 35 35 35 35-15.701 35-35-15.701-35-35-35z" style="fill:none" transform="translate(50 50) scale(1.71569)"/>
    <path d="M137.5 51.7157c-47.3752 0-85.7843 38.409-85.7843 85.7843s38.409 85.7843 85.7843 85.7843 85.7843-38.409 85.7843-85.7843-38.409-85.7843-85.7843-85.7843zm0 145.8333c-33.111 0-60.049-26.938-60.049-60.049s26.938-60.049 60.049-60.049 60.049 26.938 60.049 60.049-26.938 60.049-60.049 60.049z"/>
  </g>
  <g style="fill:#132968">
    <path d="M51 16c-19.299 0-35 15.701-35 35s15.701 35 35 35 35-15.701 35-35-15.701-35-35-35z" style="fill:none" transform="translate(900 50) scale(1.71569)"/>
    <path d="M987.5 51.7157c-47.3752 0-85.7843 38.409-85.7843 85.7843s38.409 85.7843 85.7843 85.7843 85.7843-38.409 85.7843-85.7843-38.409-85.7843-85.7843-85.7843zm0 145.8333c-33.111 0-60.049-26.938-60.049-60.049s26.938-60.049 60.049-60.049 60.049 26.938 60.049 60.049-26.938 60.049-60.049 60.049z"/>
  </g>
  <g style="fill:#132968">
    <path d="M51 16c-19.299 0-35 15.701-35 35s15.701 35 35 35 35-15.701 35-35-15.701-35-35-35z" style="fill:none" transform="translate(50 900) scale(1.71569)"/>
    <path d="M137.5 901.7157c-47.3752 0-85.7843 38.409-85.7843 85.7843s38.409 85.7843 85.7843 85.7843 85.7843-38.409 85.7843-85.7843-38.409-85.7843-85.7843-85.7843zm0 145.8333c-33.111 0-60.049-26.938-60.049-60.049s26.938-60.049 60.049-60.049 60.049 26.938 60.049 60.049-26.938 60.049-60.049 60.049z"/>
  </g>
  <circle cx="50" cy="50" r="50" style="fill:#132968" transform="translate(100 100) scale(.7353)"/>
  <circle cx="50" cy="50" r="50" style="fill:#132968" transform="translate(950 100) scale(.7353)"/>
  <circle cx="50" cy="50" r="50" style="fill:#132968" transform="translate(100 950) scale(.7353)"/>
</svg>
